<svg xmlns="http://www.w3.org/2000/svg" viewBox="0 0 375.16 359.42"><defs><style>.cls-1{fill:#f6d0b6;}.cls-2{fill:#f6b344;}.cls-3{fill:#e5b698;}.cls-4{fill:#5d51a1;}.cls-5{fill:#5d52a1;}.cls-6{fill:#f5b347;}.cls-7{fill:#e5b898;}.cls-8{fill:#292560;}.cls-9{fill:#e6c299;}.cls-10{fill:#e7c698;}.cls-11{fill:#e7c598;}.cls-12{fill:#e5b998;}.cls-13{fill:#e5bf99;}.cls-14{fill:#f29c40;}.cls-15{fill:#e6bd98;}.cls-16{fill:#e4b898;}.cls-17{fill:#5e52a1;}.cls-18{fill:#e4bd99;}.cls-19{fill:#5e529f;}.cls-20{fill:#e6bf9a;}.cls-21{fill:#5f539e;}.cls-22{fill:#e6c098;}.cls-23{fill:#e3b998;}.cls-24{fill:#edae50;}.cls-25{fill:#eda153;}.cls-26{fill:#f3d0b9;}.cls-27{fill:#fadecc;}.cls-28{fill:#63569c;}.cls-29{fill:#fadbc6;}.cls-30{fill:#5d2621;}.cls-31{fill:#46201b;}.cls-32{fill:#441c18;}.cls-33{fill:#784038;}.cls-34{fill:#401713;}.cls-35{fill:#f1bfa0;}.cls-36{fill:#efb594;}.cls-37{fill:#5e1c1a;}.cls-38{fill:#eeb494;}.cls-39{fill:#f1f1f1;}.cls-40{fill:#f1b048;}.cls-41{fill:#f0b999;}.cls-42{fill:#efad89;}.cls-43{fill:#544339;}.cls-44{fill:#eba984;}.cls-45{fill:#54433a;}.cls-46{fill:#4f3a32;}.cls-47{fill:#513c33;}.cls-48{fill:#efae8a;}.cls-49{fill:#bc8060;}.cls-50{fill:#e1b09a;}.cls-51{fill:#654f43;}.cls-52{fill:#b78368;}.cls-53{fill:#a1755f;}.cls-54{fill:#ddb8a2;}.cls-55{fill:#5d519f;}.cls-56{fill:#443a87;}.cls-57{fill:#f1913c;}.cls-58{fill:#f39d41;}.cls-59{fill:#ec9a44;}.cls-60{fill:#ec9945;}.cls-61{fill:#f3953d;}.cls-62{fill:#e5984a;}.cls-63{fill:#f3a040;}.cls-64{fill:#be2f41;}.cls-65{fill:#e5bc98;}.cls-66{fill:#e3bc99;}.cls-67{fill:#2e2b6e;}.cls-68{fill:#382f78;}.cls-69{fill:#594ea0;}.cls-70{fill:#4e4391;}.cls-71{fill:#3d327e;}.cls-72{fill:#f39d40;}.cls-73{fill:#ed7d3c;}.cls-74{fill:#f19239;}.cls-75{fill:#f3a241;}.cls-76{fill:#ee7f39;}.cls-77{fill:#5d529f;}.cls-78{fill:#f19940;}.cls-79{fill:#e58c43;}.cls-80{fill:#7a658f;}.cls-81{fill:#f29b40;}.cls-82{fill:#f29d41;}.cls-83{fill:#e6bc98;}.cls-84{fill:#4e4390;}.cls-85{fill:#e7c399;}.cls-86{fill:#952c4e;}.cls-87{fill:#3b3079;}.cls-88{fill:#bd2e41;}.cls-89{fill:#e2994b;}.cls-90{fill:#5b483d;}.cls-91{fill:#1f1b47;}.cls-92{fill:#b1324d;}.cls-93{fill:#dd9148;}.cls-94{fill:#d78e48;}.cls-95{fill:#4f3f83;}.cls-96{fill:#ae3450;}.cls-97{fill:#af3750;}.cls-98{fill:#544487;}.cls-99{fill:#b1334d;}.cls-100{fill:#ac3452;}.cls-101{fill:#242246;}.cls-102{fill:#ab3453;}.cls-103{fill:#b0334f;}.cls-104{fill:#d68d4e;}.cls-105{fill:#e1934a;}.cls-106{fill:#ad3451;}.cls-107{fill:#aa7454;}.cls-108{fill:#7a4684;}.cls-109{fill:#785d86;}.cls-110{fill:#b0334e;}.cls-111{fill:#cd9259;}.cls-112{fill:#80607e;}.cls-113{fill:#c22b3b;}.cls-114{fill:#c32b3a;}.cls-115{fill:#c22b3c;}.cls-116{fill:#60519d;}.cls-117{fill:#83467c;}.cls-118{fill:#211c51;}.cls-119{fill:#e77d40;}.cls-120{fill:#2d2536;}.cls-121{fill:#483e8a;}.cls-122{fill:#e9823f;}.cls-123{fill:#cb312c;}.cls-124{fill:#fefaf8;}.cls-125{fill:#f1914c;}.cls-126{fill:#7c4973;}.cls-127{fill:#ea884c;}.cls-128{fill:#ab2e48;}.cls-129{fill:#882e58;}.cls-130{fill:#783970;}.cls-131{fill:#f3b045;}.cls-132{fill:#922b4d;}.cls-133{fill:#5b509d;}.cls-134{fill:#5a4f9b;}.cls-135{fill:#882e57;}.cls-136{fill:#663a79;}.cls-137{fill:#7f447e;}.cls-138{fill:#603c7e;}</style></defs><title>Banner</title><g id="Layer_2" data-name="Layer 2"><g id="Layer_1-2" data-name="Layer 1"><path class="cls-1" d="M121,75.63c0-.67,0-1.33,0-2l2.31-9c2.43,0,2.75,2.57,4.53,3.84,1.95-5.6-.46-12.3,4.39-17a5.43,5.43,0,0,0,1.63-4.27c0-.74,0-1.48,0-2.22,0-2-.13-4,0-6,.46-5.28,3.07-7.15,8-5.39,2.8,1,5.41,1.4,8.15.13a14.76,14.76,0,0,1,9.77-.56,10.56,10.56,0,0,0,6.39-.06,9.19,9.19,0,0,1,6.35.25c.93.37,2.07,1,2.89.6,8.51-3.83,15.18,2.39,22.69,4a6.25,6.25,0,0,1,3.05,3.85,48.88,48.88,0,0,1,.26,9.29c0,2.39-.87,4.17-3.67,4.18-5.44-1.86-10.84-3.08-15.73,1.38-2.23,1.74-1.64,3.72-.45,5.7a4.27,4.27,0,0,0,5.54,2c4.09-1.46,8.83-1.78,11.24-6.36a3.05,3.05,0,0,1,3.31-1.69c4,3.94,3.79,8.49,1.95,13.27-.32.58-.76,1.1-1,1.69s-.91,1.86-.15,2.26c1.38.72,1.38-.92,1.92-1.62,1-1.63,1.49-3.8,4.13-3.41,4.75,1.84,3.35,6.21,4,9.74-1.58,2-2.38.47-3.29-.71-1.85-2.44-2.89-.76-3.17.94-.42,2.51-.31,5.12-1.35,7.73,2.65-.09,3.11-3.15,5.46-2.69a.69.69,0,0,1,.29.77c-.09.26-.18.39-.28.39-1.61,3.93-3.75,7.39-8,9-3.52,5.1-2.61,11.64-5.5,17-.53,1-.95,2-1.51,3h0c-1,1.36-2.11,2.58-3,4-.18,1.39-3,2.14-1,4.05.26,1.58-1,1.92-2,2.31a22.4,22.4,0,0,0-9.11,7.2,8.89,8.89,0,0,1-3.63,2.12,14,14,0,0,1-1.37.49c-1.2.34-2.37.76-3.59,1-8.31,2.27-15.72.61-22-5.35-2.68-2.57-6.77-1.49-9.38-4,3.14-2.67,3-5.84.67-8.68-4.73-5.78-7.13-12.58-9.27-19.54-.45-1.44-.77-3-2.17-3.77C122,89.6,121.47,82.63,121,75.63Z"/><path class="cls-2" d="M60.29,181.69a203.82,203.82,0,0,1,18-25c2-2.46,4.39-4.52,7.7-5.16A5.94,5.94,0,0,0,90.74,147a4.79,4.79,0,0,1,4.2-3.72c9.4-1.13,18.27-4.91,27.77-5.51a79.83,79.83,0,0,1,14.42.05,100.49,100.49,0,0,0,14,7c3.52,1.88,5.23.55,5.59-3.16.06-.65,0-1.31.08-2,.33-5.47.46-5.56,5.6-4.49.79.16,1.63.1,2.27.73,2.15,5.14,3.33,10.25-.5,15.2a12.81,12.81,0,0,1-2.83,1.83c-6.51,2-13.13,1.31-19.7.53a30.83,30.83,0,0,0-13.28.9c-1.93.62-4,1.33-4,3.77,0,2.68,2.14,3.5,4.24,4.17a29.16,29.16,0,0,0,7.37,1.06c4.68.25,9.22,1.08,13.36,3.47,1.75,1,3.45,2.07,3.55,4.41-.5,6.08-2.13,11.92-3.82,17.75a5.19,5.19,0,0,1-.77,1.3c-3.86,5-5.63,11.18-9.46,16.18a176,176,0,0,0-8.08,16.35c-2.54,5.92-5.83,7-11.82,4.54-2.19-1.88-4.23-3.88-5-6.8-1-4.3-1.94-8.59-2.69-12.93-2.24-6.57-.32-13.76-2.37-20-1-.33-1.54-.26-1.57,0-.64,6.12-3.8,8.71-10.14,8.82-4.32.08-5.26,3.55-2.59,7.13.4.53.9,1,1.32,1.5,1.55,1.93,3.73,3.87,2.42,6.58s-4.11,2.34-6.63,2.09a10.61,10.61,0,0,1-5.1-3.12c-8.42-8.86-15.21-19.23-25-26.8A3.77,3.77,0,0,1,60.29,181.69Z"/><path class="cls-3" d="M340.22,222.48l1.93.24c8.29.94,16.6.23,24.9.41,5.68.13,7.53,1.82,7.53,7.39q0,41,0,82c0,1.4.76,3.31-.89,4.08s-3.32-.29-4.58-1.34c-6.13-5.13-12.61-9.81-18.8-14.85-10.21-8.3-20-17.1-30.3-25.29-.77-.61-1.41-1.46-2.58-1.4-1.26.77-.77,2-.86,3.12-1.35,15.28-1.06,30.59-1.09,45.89a10.9,10.9,0,0,1-.39,3.46,6.68,6.68,0,0,1-.94,1.47l-.49.08-.49-.06c-1.73-1.91-1.63-4.3-1.63-6.62q-.06-45.48,0-90.95a13.7,13.7,0,0,1,.83-5.88,3,3,0,0,1,1.37-1.34c4.94-1.35,10-.58,15-.65C332.52,222.31,336.38,221.81,340.22,222.48Z"/><path class="cls-4" d="M94.16,351.42c.5-4.84,1.85-9.38,5-13.31-9-2.39-9-2.39-5.73-8.85.52-1.88-1.28-3.93.42-5.72,7-.54,8.8.38,11.65,6.25.55,1.13,1.09,2.1,2.54,1.86a2.52,2.52,0,0,0,2.08-1.92,2.81,2.81,0,0,0-1.45-3.39c-3.52-2-7.5-2.59-11.45-3.17a15.69,15.69,0,0,0-4,0c-4.56-.58-6.57-3.31-6.48-7.74.09-5.19-.81-10.65,3.82-14.67,17.14-7.28,34.41-14.25,51.21-22.33a23.41,23.41,0,0,1,3.3-1.15c9.72-2.95,12.77-1.1,15.36,8.76a104.38,104.38,0,0,1,2.27,39.59,71.71,71.71,0,0,0-.23,7.48c-.19,8.73-4.34,12.75-12.84,11.7s-16.87-1.44-25.17-3.17c-6.38-1.78-13.27-1.14-19-3.52,3.54,2.06,8.29,1.34,12.56,2.59,7.58.83,14.75,3.5,22.19,5,2.59,1.34,6.79-.57,7.84,3.87-2.73,1.1-5.57.49-8.35.5-13.46.08-26.91,0-40.37,0-.32,0-.61-.2-.19.09,18.44-.44,37.59.77,56.72-1,5.7.13,5.7.13,7,2.72-1.72,1.32-3.75,1.27-5.74,1.28q-28.49.06-57,0C98,353.19,95.74,353.38,94.16,351.42Z"/><path class="cls-2" d="M215.14,137.68c7.18-.14,14.33,0,21.06,3,6,2.18,11,6.55,17.12,8.52,1.87.6,3,2.64,3.84,4.42,4.58,9.9,11.62,18,18.52,26.3.49.56.94,1.15,1.38,1.76,3.15,4.21,6.24,8.47,8,13.49.78,2.25,2.06,4.62-.15,6.87-9.14-1.16-17.42,3-26.17,4.22-2-.22-1.93-1.41-1.4-2.86,1.54-4.2-.91-3.23-3.14-2.38-1.7.65-3.25,1.69-5,2.19-1.47.41-3.05.7-4.13-.69s0-2.46.64-3.61c.54-.93,2-1.93.78-3s-2.38.34-3.44,1.07c-1.78,1.24-3.3,4.31-5.77,2.51s-.56-4.6-.1-6.95a6.91,6.91,0,0,1,1.88-3.45,19,19,0,0,0,4.59-6.34c-2.17,1.14-3.1,3.05-4.14,4.88a7.47,7.47,0,0,1-1.85,2.34c-2.56,2-4.32,1.24-4.66-2.07-.44-4.36,1.41-8.17,3.48-11.78a76.82,76.82,0,0,0,6-12.58,14.71,14.71,0,0,0,1.11-4.84c0-2.11-.4-4.25-2.74-4.75s-3.15,1.51-3.85,3.2c-1.91,4.64-2.88,9.56-3.94,14.42-1.14,5.27-2.33,10.34-6.82,14-2.12,1.73-1.91,4.53-1.77,7,.26,4.66-.39,8.89-4,12.32-1.78,1.69-1.84,4.2-2.27,6.49-.22,1.14-.58,2.39-2,2.48s-2.4-1-2.84-2.32c-.81-2.42-.39-5-.58-7.43-.12-1.64,0-3.74-2-4.13s-2,1.74-2.53,3c-.81,2.12-1.84,4.24-4.47,3.87-2.43-.33-2.93-2.65-3-4.64,0-3-3.38-5.67-1.06-9,2.47-1.33,5.41-1.3,7.83-2.77,10-5.4,12.44-16.32,5.72-25.36-4.57-5.11-10.46-6.74-17.06-6.49-3.07-.73-3.21-2.43-1.5-4.67a7.05,7.05,0,0,1,4.1-2.6c6.5-1.47,11.5-4.77,14.06-11.21C213.3,139.21,214.42,138.58,215.14,137.68Z"/><path class="cls-3" d="M292.2,141c14.15-.08,28.3-.19,42.46-.21,3.76,0,5.67,1.71,5.64,5.86-.15,23-.13,46-.16,69a30.4,30.4,0,0,1-8.64-5.37c-11-9.3-22.1-18.46-33.45-27.32-.75-.58-1.36-1.44-2.68-1.39-.09,4.11-.05,8.23.15,12.35.07,4.64.12,9.28.06,13.91-.43,5.22,1.16,10.59-1.11,15.67-4.74,1.33-3.07-2.61-3.79-4.59a11,11,0,0,1,0-2.87c.46-24.07,1.44-48.13.75-72.21A3.66,3.66,0,0,1,292.2,141Z"/><path class="cls-2" d="M38.08,238.6c3-4.64,2.85-10.16,4.29-15.23.76-2.7.92-5.6,2.53-8,3.89-1,7.08,1.1,10.33,2.54A124.36,124.36,0,0,1,75.14,229a6.84,6.84,0,0,1,1.1,1.05c2.41,2.75,6,3.18,9.05,4.67,4.46,2.18,5.26,5.07,2.55,8.75C84.89,245,81.7,245,78.5,245c-7.81.86-15.43.51-22.91-2.48a13.76,13.76,0,0,0-9.65,0c.07,1.74,1.28,1.6,2.15,1.77,1.88.38,3.68.8,3.82,3.18s-1.19,3.71-3,4.79c-2.19,1.3-4.8,1.29-7.11,2.23-1.95.79-2,1.17-.56,2.87,2.54.14,4.77-1.17,7.21-1.44a2.57,2.57,0,0,1,2.49,1.65c.89,6,.51,12.18,1.51,18.24,1.66,10.06,3.63,19.92,12,27a3.31,3.31,0,0,1,.85,3.06c-2.54,3.43-6.09,3.2-9.72,2.7C42.14,305.42,36,294.75,30.14,283.76c.32-8.09,2.52-16,2.68-24.06.88-5.09,1.38-10.23,2.64-15.25C36,242.34,36.45,240.21,38.08,238.6Z"/><path class="cls-5" d="M292.16,218.62c1,1.52-1.32,4.32,1.94,4.94,6.26-2.23,12.5-2.55,18.7.23a33.2,33.2,0,0,1,.46,4q0,50-.11,99.9l-20.81-.06a4.78,4.78,0,0,1-1.58-4c.12-10.48-.75-21,.14-31.44.65-3.23,2.88-5.56,4.78-8,5.8-7.57,7.73-15.64,3.58-24.65-1.05-2.26-1.42-4.76-2.12-7.14-1-6.23-1.38-12.54-2.79-18.69-.1-2.26-2.14-2.79-3.52-3.91-1.07-2.94-2.27-5.88-.91-9C290.34,219.63,290.5,218.25,292.16,218.62Z"/><path class="cls-6" d="M94.16,351.42q34.38.61,68.76,0c1.35-1.24,3-1.25,4.7-1.25,7.83,0,15.66-.28,23.48-.05,13.9.23,27.8-.29,41.7-.06,2.44,0,5-.36,7.15,1.36,2.82.14,5.64.29,8.46.4,2.46.09,5.11.42,5,3.5s-2.34,4.18-5.23,4.1c-.83,0-1.67,0-2.5,0H85.3c-1,0-2,0-3,0-2.67-.1-4.71-1.42-4.72-4.11s2.23-3.4,4.62-3.47C86.19,351.7,90.17,351.55,94.16,351.42Z"/><path class="cls-7" d="M314.2,326.6c-.57-18.71.27-37.38,1.25-56.93,5.74,4.61,11.09,8.68,16.18,13,10.05,8.62,19.93,17.43,30.77,25.06,2.85,2,4.79,5.08,8,6.72,1,.52,1.89,1.75,3.06,1.24,1.33-.59.63-2.07.64-3.13q.06-41.16,0-82.34c0-4.54-2.29-6.66-6.78-6.64-6.82,0-13.64,0-20.46,0-1.6,0-3.36.55-4.72-.89,8.82,0,17.64-.1,26.46-.11,4.24,0,6.52,2.18,6.53,6.43q0,46.18,0,92.38c0,1.74-.19,3.33-1.92,4.27a7.27,7.27,0,0,1-2.16.83c-8.39,1.57-15-1.09-20.53-7.68a67.62,67.62,0,0,0-19.1-15.64,45.32,45.32,0,0,1-10.73-8.91c-.85-.92-2.05-2.05-3.47-1.35-1.24.61-.81,2.07-.82,3.19,0,5.49-.05,11,.07,16.49a76.14,76.14,0,0,1,0,9.79C316.35,324,316.78,326.21,314.2,326.6Z"/><path class="cls-5" d="M75,229.73c-5.61-3-11.21-6.1-16.84-9.09a79,79,0,0,0-13.25-5.3c4.05-11.71,6.61-24.1,15.39-33.65,7.86,4.9,13.55,12,19.22,19.12,2.37,3,4.81,5.87,7.22,8.79-2.09,2.12-6.34.57-7.45,4-1,3.27,2.33,4.75,3.68,7.05s.54,3.88-1.24,5.12C79.6,227.27,77.58,229,75,229.73Z"/><path class="cls-8" d="M292.2,141a13.17,13.17,0,0,1,.45,2.45c.06,24.45.36,48.9-.4,73.35-5.13-2.42-8-8.34-7.36-15.13.45-5.9-2.82-10.36-5.78-14.93l-3.51-5.4c-1.89-8.55-.49-17.22-1-25.83a48.85,48.85,0,0,1,.38-12.43,3.2,3.2,0,0,1,1.74-2.14Z"/><path class="cls-9" d="M.39,283.73l0-30c2.18.26,1.89,2.09,1.92,3.43.07,3,.89,5.94.94,8.9.06,3.36,1.57,5.56,4.08,7.51q14.53,11.31,28.62,23.18c3.18,2.67,6.09,5.66,9.52,8,7.64,5.28,8.15,12.62,6.12,20.74a7.92,7.92,0,0,1-9.63-.95c-12.09-10.15-24.36-20.09-36.56-30.1C1.57,291.38,1.4,287.6.39,283.73Z"/><path class="cls-10" d="M.39,283.73c.26.2.73.38.76.61,1,9.35,9.61,12.35,15.21,17.62,8.29,7.8,17.65,14.44,26.3,21.87,2.73,2.35,5.57,1.52,8.44,1.81a1.36,1.36,0,0,1,0,2c-15,0-30,0-45,.16-4.07.05-6-1.82-6-5.6C.18,309.36.31,296.54.39,283.73Z"/><path class="cls-11" d="M291.1,327.6q-22.39.06-44.77.13c-2,0-4-.39-5.81.82-2.63-1.8-.73-4.19-.82-6.31.31-2.35-1.36-3.93-2.28-5.8a7,7,0,0,1,1.05-6.13c2.83-4.48,2.23-8.73-.42-13a5.76,5.76,0,0,1-1-3.58c.59-3.2,2.41-3.08,4.6-1.64,2.6,1.72,5,3.68,7.51,5.53a21.63,21.63,0,0,0,4.56,3.14c2,1.28,3,3.47,4.49,5.18,1.55,2.14,4.38.95,6.2,2.39,5,5,10.78,9.22,16.16,13.85,3.2,2.75,7.43,1.27,10.7,3.29A1.78,1.78,0,0,1,291.1,327.6Z"/><path class="cls-12" d="M294.14,192.63V178.72c5,3.69,9.52,6.82,13.78,10.3,8.57,7,17,14.18,25.43,21.4,2.18,1.87,5.76,1.9,6.79,5.23q0,3.4.08,6.83c-3.5,2.41-7.43.58-11.11,1.15-4-6.54-11.44-9.35-16.25-15C307.51,202.25,300.11,198.27,294.14,192.63Z"/><path class="cls-13" d="M51.11,327.61c0-.66,0-1.32,0-2,0-2-.33-4.06.07-6,1.32-6.35-2.14-10.35-6.51-13.94C31.55,294.94,18.59,284,5.2,273.52c-5-3.88-2.4-9.11-4-13.51-.71-1.93.61-4.3-.82-6.24,0-4.11-1.17-8.28.69-12.28,2.18,3,2.3,6.5,2.28,9.93A8.45,8.45,0,0,0,7,259c7.6,5.57,14.22,12.37,22.11,17.59a3.41,3.41,0,0,1,1.71,3.77c-.25,1.42-.73,2.91.33,4.26a97.15,97.15,0,0,0,12.46,16c3.15,3.29,6.64,5.77,11.14,6.69-1.57,4.26-1.13,8.7-1.22,13.11,0,2.42.4,4.94-1.1,7.14Z"/><path class="cls-12" d="M38.08,238.6l-4,21c-1.19,6.73-2.72,7.33-8.14,2.92-7.33-6-14.43-12.24-21.73-18.25-1.11-.92-2.73-1.81-2.06-3.56.54-1.41,2.26-1.17,3.5-1.47,2.08-.51,4.3.39,6.37-.54Z"/><path class="cls-14" d="M215.14,137.68c-2.16,8-7.14,13.16-15.34,14.79a7.57,7.57,0,0,0-4.87,3c-1.13,1.49-.17,2,1.2,2.23-3.36,3.14-7.44,5.31-11.08,8.07-.78.59-1.87-.2-2.64-.87-2.89-4.13-3.52-9-4.61-13.75-.09-1.51-.74-3-.14-4.53a3.42,3.42,0,0,1,2.23-1.78c6.15-1.37,11.41-4.56,16.61-7.91Z"/><path class="cls-15" d="M12.06,238.73c-2.74,2-6.61-.12-9.23,2.63,8,6.83,16,13.71,24.08,20.46,4.53,3.78,5,3.58,7.21-2.19,0,8.45-2.21,16.63-3,25-2-9.93-11.95-12.37-17.69-18.78a9.44,9.44,0,0,0-2.75-2.07c-9.6-4.69-9-13.74-9.67-22.29.48-3.22,3-2.88,5.21-2.9C8.19,238.58,10.13,238.68,12.06,238.73Z"/><path class="cls-16" d="M276.75,141l-.79.7c-.38.32-.76.75-1.24.81-9,1-18,.6-26.76.63,6.29-1.81,9.36,3.59,13.65,6.67,2.31,1.65,4.2,4.15,6.67,5.19,7.22,3,8.13,8.6,7.33,15.27-.42,3.42.67,6.93-.6,10.31-6.49-7.23-13.1-14.38-17.17-23.4-2.29-5.09-5.73-8.6-11.67-9.56-4.18-.69-6.28-5.09-10-6.9Z"/><path class="cls-17" d="M52.45,327.56c0-5.63,0-11.27-.1-16.91,0-1.78,0-3.39,2.43-3.34a10.76,10.76,0,0,0,10-1.88c1.84-1.11,3.47-.25,5.11.55A3.48,3.48,0,0,1,71,307.42c.42,6.77,1.66,13.57-.8,20.23Z"/><path class="cls-18" d="M93,327.74l-21.92-.12c-.08-5.71,0-11.42,0-17.13A3.8,3.8,0,0,1,74,306.41a15,15,0,0,0,1.41-.53c2.33-.52,3.05-2.78,4.51-4.25a2.09,2.09,0,0,1,2.17-.19,14,14,0,0,1,5.57,14c-.47,3.19.17,5.8,4,6.95C94.26,323.18,94,325.56,93,327.74Z"/><path class="cls-19" d="M196.5,136.9c-3.41,5.4-9.12,6.87-14.68,8.54-1.24.37-2.6.36-3.69,1.21a2.77,2.77,0,0,1-2.52.55,2.44,2.44,0,0,1-1.29-1.2c-.85-4.8-1.47-9.58,1.89-13.8.88-.6,2.22-.36,2.77-1.54,5-3.49,10.45-5.87,16.73-5.71Z"/><path class="cls-19" d="M240,351.41q-24.28.68-48.57,0c-.08-2,1.64-1.81,2.78-2a201.34,201.34,0,0,0,42.37-13,3.17,3.17,0,0,1,1.95-.16l.64.47C236.93,341.74,240,346.49,240,351.41Z"/><path class="cls-20" d="M314.2,326.6c2-4.89.4-10,.91-15,3.24-1.11,5.67.82,7.49,2.76,7.1,7.6,15.33,10.87,26,10.25,7.4-.43,14.9,2.57,22.53,1l2.13.05c-1,1.95-2.83,2.06-4.72,2.05l-54.39-.12C314.15,327.28,314.18,326.94,314.2,326.6Z"/><path class="cls-21" d="M150.17,145.49c-4.51-2.3-10.08-2.8-13-7.72l2.36-9.32a61,61,0,0,1,15.75,5c2.69,1.25,3.3,6.56,1.52,10.81C155.26,147.85,152.56,146.1,150.17,145.49Z"/><path class="cls-22" d="M264.11,308.63c-2.39-.48-5.57,1.4-6.89-2.3,5.06.33,8-3,11-6.31a5.21,5.21,0,0,1,2.1-.41c7,2,12.59-.34,17.3-5.66,1.14-1.28,1.92-3.59,4.45-3l.27,36.61-1.24,0,0-2a3.09,3.09,0,0,1-1.06-2.7c2.15-9-5-12.54-10.16-17.08-2.75-2.43-9.94-1.56-12.8,1A5.27,5.27,0,0,1,264.11,308.63Z"/><path class="cls-23" d="M93,327.74c.22-2.45.12-4.57-3-5.34a3.59,3.59,0,0,1-2.86-4.14c1.38-7-1.65-12.2-6.43-16.78a2.44,2.44,0,0,1-.18-1.48c2.57-4.35,7.14-6.3,11.09-8.9,2.72-1.79,3.41.25,3.33,2.67-1,2.81-1.8,5.72-4.12,7.84-3.64,5-2.55,10.85-2.61,16.41,0,3.52,3.68,3.25,5.83,4.53a1,1,0,0,1,.27,1.35c-.38,1.78.61,3.79-.9,5.37Z"/><path class="cls-24" d="M150.17,145.49c2.31-.45,5.73,2.25,6.31-2.88.82-7.27.55-8.59-5-9.67a31.9,31.9,0,0,1-12-4.49l.57-3c4.8-.12,8.89,1.11,12.47,4.73,3.94,4,9.26,4.7,14.7,4.17,1.63-.16,3.25-.47,4.87-.71-.46,3-3,2.52-5,3.09a4.14,4.14,0,0,1-3-1.09c-5.64-1.78-6.33,1-6.13,5.85C158.21,147.12,155.26,148.43,150.17,145.49Z"/><path class="cls-25" d="M195.71,125,179,130.65c3-4.49,7.42-6.91,12.16-9C193.49,121.62,196.14,121.13,195.71,125Z"/><path class="cls-23" d="M75.86,306.41c-3.42,1.23-4,3.75-3.85,7.13.19,4.69.71,9.47-.89,14.08l-.46.08-.46-.05,0-21C72,305.05,73.92,305.14,75.86,306.41Z"/><path class="cls-26" d="M213.14,73.64v2c-.21,3.28.14,6.74-3,9l0-1.05a3.82,3.82,0,0,1,2-4.85c-1.83-3.21.47-8-4-10.21-.51-1.1-.6-1.94,1.05-1.67C210.18,69.26,213.12,70.58,213.14,73.64Z"/><path class="cls-27" d="M195.13,113.65c1.5-5.34,3-10.69,4.51-16,.45-1.53.58-3.34,2.5-4-2.09,5.67-2.37,11.86-5,17.4A4.5,4.5,0,0,1,195.13,113.65Z"/><path class="cls-28" d="M241,321.74c.5,2.31-1.63,4.46-.43,6.81-.67,2.68,2.41,6-1.4,8.15a4.47,4.47,0,0,1-.41-.35c-1.39-2.08-.83-4.45-1-6.71,0-2.31-.17-4.63.54-6.89C238.86,321.66,239.54,320.7,241,321.74Z"/><path class="cls-29" d="M192.11,117.63c.08-2,1.38-3.13,3-4C195,115.65,193.73,116.77,192.11,117.63Z"/><path class="cls-30" d="M150.37,34.77c-2.92,2-5.78,1.56-8.81.06-4-2-6.16-.65-6.38,3.9-.11,2.29,0,4.6,0,6.9-2.77.22-4.18,2.43-6,4.09-4,3.75-5.31,3.62-8.41-.9.28,1.41.57,2.81-.75,3.91-4.61-9.12-.47-16.8,4.48-24,1.93-2.8,3.81-5.35,4.24-8.78.57-4.46,3.43-7.51,6.66-10.2A38.29,38.29,0,0,1,164.12.67c1.19.89,2.56.4,3.84.46,4,.2,4.67,1.37,2.61,4.8A10.72,10.72,0,0,1,166,10.3c4.29,2.7,8.34,6.14,13.69,2.88C177.48,9,168.75,8.3,173.1.67,179.88-1,185.94.53,191.42,4.72c2.38,1.82,4.71,3.71,7.17,5.4,7.51,5.14,11.26,11.58,11.17,21.29,0,6.09.32,12.74,3,18.86,2.48,5.71.74,11-3.54,15.51-1.19-1.21-.71-2.58-.05-3.67,2.28-3.76,1.12-7.12-1.27-10.1-2.12-2.62-4-5.23-4.73-8.6-.52-2.49-2.76-3.62-4.39-5.22C194.21,31,186.49,27.66,179.9,23a3.64,3.64,0,0,0-4.25-.08c-3.14,2.06-5.68,1.34-7.74-1.53-2.21-3.1-4.28-3-6.86-.3-1.59,1.65-3.75,2.72-5.36,4.45a4,4,0,0,1-5,1c-4.34-2.42-7.22-.84-9.53,3a8.7,8.7,0,0,1-1.87,2.05C142.74,33.21,146.94,32.57,150.37,34.77Z"/><path class="cls-31" d="M199.12,37.62c1.61.83,3.82,1.34,4.3,3.11A31.15,31.15,0,0,0,210.11,53c4,4.64-.19,8.55-.92,12.77,0,.35-.07.71-.1,1.06-.88.22-1,.94-1.05,1.67a7.42,7.42,0,0,0-3,4c-.72,1-1.4,2.91-2.76,1.91-1.56-1.15-.92-3.14,0-4.75,2.29-4.59,1.53-8.94-1-13.15-1.52-2.87-.26-5.77-.16-8.67a18.71,18.71,0,0,0-.88-6.34l-2.34-2.76A1.47,1.47,0,0,1,199.12,37.62Z"/><path class="cls-32" d="M120,52.73c.65-2.14-.91-4.09-.66-6.4.57.21,1.12.23,1.36.52,4.31,5.27,4.26,5.23,9.63.07,1.26-1.21,2.34-4.15,4.8-1.29,0,.67,0,1.34,0,2-.87,1.28-1.07,2.89-2,4.13-4.78,5.93-2.86,13.1-3.53,20.09-3.89-1.15-3.93-5.28-6.36-7.27C121.34,60.86,122.43,56.33,120,52.73Z"/><path class="cls-33" d="M173.1.67c0,5.62,4.25,10.63,9.57,10.9-1.13,2.43-2.24,4.53-5.33,3.62a2.68,2.68,0,0,0-3.09.81c-1.9,2.11-3.15,1.32-3.83-.95-.5-1.67-1.31-2.49-3.14-2.46-2.79.05-3.31-2.08-4.1-4.53,2-.07,4,1.85,5.17-1,.58-1.43,2.63-2.66,2.25-4.21-.53-2.16-2.85-.7-4.3-1.19a23.38,23.38,0,0,1-2.18-1Z"/><path class="cls-34" d="M199.12,37.62l-1.27,1.15c-4-.78-8.16-.75-11.35-4.24-1.91-2.1-4.75-.84-7.05.07-2.61,1-5.09,1.38-7.67,0-.72-.38-1.76-1-2.33-.7-6.27,2.7-12.82-1.33-19.08.87-4.39.33-8.45-1-12.6-2.71l4-5.45c2-2.77,4.46-4,7.64-1.84,2.68,1.8,4.63,1.55,6.61-1.3,1.66-2.39,4.71-3.38,6.74-5.68s4.07-.16,5.18,1.64c2,3.3,4.11,5.09,7.74,2,1-.88,2.75-1.36,3.73-.47C185.74,26.78,195.36,28.75,199.12,37.62Z"/><path class="cls-35" d="M153.1,75.64c7.29-2.85,14.45-2.57,21.75.28,3.65,1.43,7.67,1.89,11.48,3,1.16.33,2.91.77,2.49,2.53a2.8,2.8,0,0,1-3.54,2c-6.89-2.14-14.08-1.69-21.09-2.35-5.47-.52-11.11.89-16.68,1.26-2.44.17-6.35,1.9-6.89-1.18s3.61-3,6-3.41,4.58-.52,6.45-2.08Z"/><path class="cls-36" d="M200.19,41.53c3.18,4.81.72,10,1,15-3.31,5.91-9,7.79-15.08,9.35-3.65.92-4.81-1.24-6.05-3.46s-2.25-5,1.12-6.67c.86.33,0,4,2.46,1.25,1.31-1.44,2.65-2.9,4.71-3.31a12.13,12.13,0,0,1,4.12,0c1.61-.59,2.82,2.88,4.61.46,1.52-.4,3.48.1,3.1-2.84C199.82,48.1,200.17,44.79,200.19,41.53Z"/><path class="cls-37" d="M177.1,110.63c-6,5.07-12.51,7.13-20,3.57-1.81-.85-3.62-1.84-4.54-3.66-.79-1.54-1.84-3.61,1.47-3.71,3.79-.71,7.36,1.14,11.17.85,4.47-.34,8.54-2.13,12.88-2.89C181.59,106.79,181.57,106.91,177.1,110.63Z"/><path class="cls-38" d="M152.38,59.64c0,4-1.73,6-5.88,5.27a11.51,11.51,0,0,0-7.25.63c-3.5,1.68-5.16.1-4.78-3.37.2-1.81-1.7-3.94.66-5.46,1.5,1.22,2.1-.35,3-1,3.35-2.24,6.29-1,9.16,1C148.9,57.9,150.12,59.69,152.38,59.64Z"/><path class="cls-39" d="M178.12,105.59c-7.89,3.45-15.86,5.1-24.12,1.24-.21-1.53-3.15-1.5-2.29-3.35.77-1.65,2.77-1,4.08-.74a49,49,0,0,0,17.79.08c2-.3,5.07-1.83,6.47,1.59C179.82,105.49,178.57,104.88,178.12,105.59Z"/><path class="cls-40" d="M167.12,135.63c1.75-.43,3.59-.63,5-2a4.73,4.73,0,0,1,3.16-1c-1.06,4.76-.46,9.61-.77,14.41-1.68,2.35-3.94,2.06-6.13,1.11s-2.39-3-2.21-5C166.37,140.66,165.15,137.93,167.12,135.63Z"/><path class="cls-41" d="M212,78.72c-.66,1.61-1.31,3.23-2,4.85-2.42,1-2.73,6-5.66,4.61-3.51-1.6.71-4.47.38-6.87-.13-1-.66-2-.4-2.87.58-1.88,1.34-4.15,3.56-4.36s1.76,2.3,2.48,3.63C210.69,78.19,211.49,78.39,212,78.72Z"/><path class="cls-42" d="M128,79.48a3.75,3.75,0,0,0,0,2.87c.37,1,1.67,2.17.15,3s-2.45-.48-3.28-1.52a8.14,8.14,0,0,1-1.71-6c.16-1.81-.79-4.67,2.07-4.65,2.54,0,3,2.58,2.91,4.88C128.1,78.5,128.06,79,128,79.48Z"/><path class="cls-43" d="M197.12,54.15c.71.44,1.42,1,1.11,1.89a1.49,1.49,0,0,1-2,.71,25.1,25.1,0,0,1-3.09-2.19c-1.62-.79-3.27-.51-4.92-.18-1.2,1.11-2.38,2.25-3.63,3.31s-1.61,4.05-3.91,2.49c-1.77-1.19.43-2.9.6-4.42C186.71,50.74,192.21,51,197.12,54.15Z"/><path class="cls-44" d="M170.2,96.79c-3.75,2.65-7.46,2.88-11.12-.17.1-1.53-1.25-2.15-2-3.15a43.84,43.84,0,0,1,15,1C171.67,95.42,170.15,95.46,170.2,96.79Z"/><path class="cls-45" d="M152.38,59.64c-2.43,2.6-3.78.1-5.15-1.23-2.72-2.65-5.45-4.36-9-1.48a2.29,2.29,0,0,1-1.53-1.44c4.75-4.07,8.23-4,12.43.43C150.26,57.11,151.29,58.4,152.38,59.64Z"/><path class="cls-46" d="M185.07,73.84l-2.91.15c-1.24.93-2.48,2-3.93.32.66-3.5,3.46-4.33,6.25-4.24,2,.07,3.72,1.68,4.61,3.74.58,1.37.56,2.55-1,3.23C185.22,77.71,186.05,74.93,185.07,73.84Z"/><path class="cls-47" d="M149.24,74.27c-1.8-2.24-3.64-2.67-5,.29-.69,1.54-1.73,1.54-2.69,1-1.12-.69-.28-1.72.11-2.6,1.81-4.13,4.38-4.44,10.35-1.24.7,1,.93,2.1-.06,2.92S150,75.57,149.24,74.27Z"/><path class="cls-48" d="M162.86,123.68a11.54,11.54,0,0,1-2.56-.54c-1.28-.56-3.33-1-2.77-2.86.68-2.25,2.48-.55,3.78-.43a8.09,8.09,0,0,1,2.36.7c1.31.55,4-1,3.77,1.61C167.26,124.11,164.79,123.51,162.86,123.68Z"/><path class="cls-49" d="M174.18,146.58c-.11-4.67-.78-9.38,1.08-13.9l1-.48c-.84,4.7-1.67,9.4-.82,14.2A.79.79,0,0,1,174.18,146.58Z"/><path class="cls-41" d="M202.24,69.69c.52,1.48-1.3,3.3.23,4.4,1.14.82,1.55-1.24,2.57-1.56-.07,2.19-1.28,3.86-3.28,2.67C198.94,73.53,200.86,71.45,202.24,69.69Z"/><path class="cls-50" d="M178.12,105.59c.35-.87,1.16-1,1.93-1.18,2.39,2.52,1.61,4.16-3,6.22C176.94,108.85,182.08,108.14,178.12,105.59Z"/><path class="cls-51" d="M136.69,55.49l1.53,1.44c-.65,1.12-1.17,2.77-2.7,2.41-1.11-.26-.38-1.71-.39-2.63Z"/><path class="cls-52" d="M170.2,96.79c-.66-.3-1.91-.32-1.48-1.37.63-1.51,2.18-.84,3.38-.94A2,2,0,0,1,170.2,96.79Z"/><path class="cls-53" d="M157.09,93.47c2.06.17,4.58,0,2,3.15C157.78,96,156.84,95.1,157.09,93.47Z"/><path class="cls-35" d="M149.24,74.27c2.49.81,3.59.13,2.79-2.59,1.68,1,.94,2.58,1.07,4h0C151.73,75.45,150,76.31,149.24,74.27Z"/><path class="cls-54" d="M185.07,73.84c1.48.62.47,3.57,3,3.2C184.19,78.67,185.38,75.56,185.07,73.84Z"/><path class="cls-54" d="M178.23,74.31c1.38.76,2.66.32,3.93-.32C181,76.36,179.72,76.49,178.23,74.31Z"/><path class="cls-30" d="M133.17,51.76a4.91,4.91,0,0,1,2-4.13A3.88,3.88,0,0,1,133.17,51.76Z"/><path class="cls-55" d="M94.23,293.5c-.06-1.57.06-3.35-2.3-1.51-3.67,2.87-7.38,5.69-11.07,8.52a2.37,2.37,0,0,1-2.35-.36c-7.82-6.41-12.59-14.53-13.7-24.68,4.3-3.62,9.89-4.45,14.77-6.83a85,85,0,0,0,9.2-3.71c1.67-.82,3.45-1.35,5.15-2.1,2.93-1.25,6-2.13,8.7-4a10.37,10.37,0,0,1,3.17-1.37c2.93-.6,5.4-2.27,8-3.54a33.1,33.1,0,0,1,3.18-1.37c2-.62,3.82-1.72,5.91-2.05a13.74,13.74,0,0,0,8.82-4.83c3.51-3.11,5.93-6.58,4.55-11.66-.5-1.87,0-3.65,2.17-4.35,1.32-.37,2.74-.42,3.94-1.22,3.51-3.75,3-6.69-1.9-10.21-1.83-1.32-4.36-2-4.31-4.94a3.75,3.75,0,0,1,1.73-3c2.34-.89,4.14.7,6.13,1.39,4.16,1.45,7.08.44,9.22-3.41,1-1.75,1.72-3.63,3.61-4.64,2.74-1.48,1.64-3.15.23-4.82-2.21-1.27-5.15-1.72-5.6-5a5.89,5.89,0,0,0-1.85-1.66c-.92-.59-1.9-1.13-2.09-2.37q2.28-9.2,4.55-18.4c1.71-7.19,4-14.09,9.17-19.67l1.86-1.17c1.47-.82,2.52-.12,3.48.95,1.32,2.43,1.89,4.9.5,7.51-2.16,6-4,12.18-6,18.25-.92,5.39.12,7.68,3.83,8.34,2.64-.32,5.2-.38,6.86,2.27a20.58,20.58,0,0,1,1.52,4.37,17.76,17.76,0,0,0,3,6.92c2.14,5.89,1,12,1.23,18-1.3,2-3.37,2.73-5.58,3.2-2.48-.19-2.88-1.92-2.9-3.92.7-3,1-6-1.66-8.36-2.36,3.4-4,7.06-4,11.23a45.91,45.91,0,0,1-1.07,9.36c-.3,1.65-.85,3.25-1.16,4.9-.77,2.55-1.5,5.11-3.22,7.24-2.35,2.59-5,4.84-7.18,7.64-11.43,10.72-24.43,19.46-36.79,29-6.51,5-14.13,8.78-18.81,16C95,293.72,94.57,293.63,94.23,293.5Z"/><path class="cls-56" d="M75,229.73c1.18-2.47,3.68-3.21,5.78-4.5,1.94-1.2,3-2.61.81-4.71s-5.28-4.06-3.94-7.35c1.56-3.79,5.52-3.68,9.09-3.57l4.36,3.07c9.85,3.34,18.56,8.87,27.26,14.38,2.73,2.43,7.11,3.06,8,7.44a3.76,3.76,0,0,1-2.34,2.43c-7.69,2.45-15.37,5-23.62,4.5-4.71-4.31-10.75-5.56-16.61-7.29-3-.88-6-1.76-8.61-3.64A2.75,2.75,0,0,0,75,229.73Z"/><path class="cls-57" d="M117.79,227.79l-26.7-15.12c.33,0,.66,0,1,0,1.9-.18,4.45.88,5.39-1.36s-1.2-3.87-2.65-5.4c-2-2.14-5-4-3.36-7.52,1.51-3.28,4.7-4,8-3.67,3.87.34,6.08-.82,5.65-5.2-.18-1.93-.38-4.53,2.39-4.61,2.55-.07,3.59,2.06,3.54,4.49a106.17,106.17,0,0,0,1.05,18.26c.72,4.4.92,8.92,3,13,.6,2.49,3.06,3.73,4,6C119.22,227.61,118.91,228.16,117.79,227.79Z"/><path class="cls-58" d="M161.29,151.73q-4.59,9.84-9.17,19.67c-3.58-5.9-9.78-6-15.52-6.65a82,82,0,0,1-8.8-1.12c-3-.7-5.4-2.31-5.48-5.51s2.35-4.41,5.13-5.14a37.89,37.89,0,0,1,15.16-.82C148.77,153,155.1,153.44,161.29,151.73Z"/><path class="cls-59" d="M166,151.67l-2.83-1.11c3.54-3.23,1.61-7.33,1.69-11.09a18.57,18.57,0,0,0-.72-3.83h3c0,2.28,0,4.57,0,6.85.08,5.33,1.64,6.23,7.07,4.1l1.21-.18a1.21,1.21,0,0,1,.7.26,1.46,1.46,0,0,1-.13,1.77,4.47,4.47,0,0,1-.9.89,5.33,5.33,0,0,0-2.48,2.73c-2.22,5.91-1.25,12.32-3,18.34-1.45,4.85,1.65,9.69.93,14.66-7,1.5-7.06,1.45-7.66-4.16a10.73,10.73,0,0,1,1.13-5.16c.94-1.46,1-3.17,1.27-4.82a11.6,11.6,0,0,1,.34-1.44,51.72,51.72,0,0,1,1.62-10.8A7.16,7.16,0,0,0,166,151.67Z"/><path class="cls-60" d="M117.79,227.79l1.35-1.18c6.79,1.89,8.42,1,11.07-5.79a74.4,74.4,0,0,1,7.9-15.2,3.35,3.35,0,0,1,1,2.93,3.74,3.74,0,0,1-1.08,2.11L136.67,214a17.81,17.81,0,0,1-.52,5.54c-1,4.4-2,8.81-4.54,12.62-1.25,1.9-2.69,4.18-5.49,1.79Q122,230.86,117.79,227.79Z"/><path class="cls-61" d="M93.68,156.84a32.17,32.17,0,0,1-3.82-.9c-1.22-.44-2.73-1-2.32-2.72.3-1.28,1.59-1.68,2.81-1.56,3.83.41,6.74-1.15,9.22-3.91,1-1.07,2.42-1.63,3.58-.76,1.53,1.15-.09,2.37-.49,3.49C101.16,154.63,98.6,157.33,93.68,156.84Z"/><path class="cls-62" d="M138.1,208.46c0-.94,0-1.89,0-2.83,3.6-5,5.23-11,9.08-15.87a3.1,3.1,0,0,1,.62,2.44,17.46,17.46,0,0,1-.53,1.84c-.16.61-.36,1.22-.57,1.82-.29.82-.57,1.63-.9,2.44-1.78,3.37-4.24,6.33-6,9.72C139.33,208.51,138.87,209.11,138.1,208.46Z"/><path class="cls-63" d="M115.1,220.64c-3-3.87-3-8.44-3-13Q113.62,214.13,115.1,220.64Z"/><path class="cls-64" d="M146.87,192.46c.1-.9.21-1.8.32-2.7l.38,0,2.6,1.75C149.69,194.08,148.34,193.5,146.87,192.46Z"/><path class="cls-65" d="M294.14,192.63c1.57-1,2.3-.2,3.63.9,8.78,7.26,16.63,15.56,25.75,22.41,2.54,1.91,5.74,3.68,5.59,7.69l-15,0a34.64,34.64,0,0,1-20-16Z"/><path class="cls-66" d="M294.13,207.64c5.89,6.28,12.32,11.88,20,16l-1.3.18-18.7-.23Z"/><path class="cls-56" d="M94.23,293.5c2.93-7.56,10.36-10.38,16.09-14.82,13.37-10.35,27.43-19.82,39.93-31.28a20.37,20.37,0,0,1,2-.78c3.47-.35,5.76-3.81,9.45-3.57a3,3,0,0,1,1.34.78c2,2.63,1.38,5.72,1.42,8.65a82.66,82.66,0,0,0,1,8.9c.35,2.91,1.92,4,4.75,3.7s3.85-2.07,3.44-4.45c-1.24-7.07-.53-14.23-1.24-21.32a3.67,3.67,0,0,1,2.22-3.16,5.19,5.19,0,0,1,1.48-.46c2.58-.29,4,1.16,4.85,3.35,1.84,5,5.5,8.13,10.17,10.26a11.79,11.79,0,0,1,5.77,5.2,40.58,40.58,0,0,0,5.36,6.21c5.49,2,8.71,6.93,13.05,10.41,6.18,4.95,12.25,10.05,18.53,14.86,2.69,2,4.15,4.35,4.29,7.62.38,1,.07,2.35,1.12,3.17.95,3.3-.6,3.56-3,2.35-15.48-7.72-31.77-13.86-46.15-23.75a53.84,53.84,0,0,0-9.11-5.19c-3.35-1.45-5.48-.47-6.24,3.17-.92,4.41-2,8.82-2.13,13.32-.36,16,.19,32-1,47.93-.53,7.12,1.17,8.24,8.22,7.15,15.48-2.4,30.83-5.51,46.06-9.21,2.36-.57,4.79-1.75,7.22-.1.42,2.34-1.5,2.79-3,3.23-16.79,5-33.55,10.23-50.89,13.15a22.79,22.79,0,0,1-4.45.23c-5.74-.17-11.48.15-17.21-.19a8.37,8.37,0,0,1-1.57-.3c-5.65-1.39-11.63-1.16-17.11-3.4.91.1,1.52.43,1.19,1.52-7.57-.7-14.64-3.62-22.06-5,1.56-3.08,4-1.13,6.07-1.06,7.73.86,15.5,1.46,23.17,2.65,8.34,1.3,14.68-.28,13.89-11.08-.51-7,1-13.88,1.1-20.87.22-10.13-2-19.74-4.28-29.43-.7-3-2.39-4.35-5.67-4.35-4.67,0-8.85,1.51-12.87,3.48-15.39,7.53-31.26,13.92-47.1,20.4a5.88,5.88,0,0,1-1.48.19C90.8,298.41,93.36,296.31,94.23,293.5Z"/><path class="cls-67" d="M175.12,347.64c10.78-.55,21-3.89,31.38-6.37,8-1.92,15.85-4.5,23.74-6.87a13.69,13.69,0,0,0,2.89-1.77c1.32-2.27,3.1-3.57,5.87-2.7.1,2.15.65,4.32-.29,6.42-14.14,7.57-29.5,11.27-45.06,14.35a23.17,23.17,0,0,0-2.28.72,259.62,259.62,0,0,1-28.45,0c-2.15-1.48-4.61-.34-6.89-.82-1.8-1.42-5.18,1-6.13-2.51,2-1.66,4.08-1.05,6.2-.44h0A72.09,72.09,0,0,0,175.12,347.64Z"/><path class="cls-68" d="M94.36,323.9c-.09-.45-.17-.9-.26-1.35,5.81-1.63,11,.68,16,2.92,2,.89,2.43,3,1.45,5.13a4.68,4.68,0,0,1-4.68,3c-2.38-.1-3-1.83-2.82-3.82.3-3-1.47-4.09-4-4.63C98.2,324.75,96.28,324.32,94.36,323.9Z"/><path class="cls-69" d="M150.15,348.6c1.61,1.69,4.33.14,5.88,2H97.2v-1h18.2c9.33,0,18.65,0,28,0,1.6,0,3.37.54,4.73-.89A1.39,1.39,0,0,1,150.15,348.6Z"/><path class="cls-70" d="M124.11,340.62c-2,.37-4.3-.81-6.07,1.06-4.92.09-9.36-1.75-13.84-3.64C110.8,339.32,117.69,338,124.11,340.62Z"/><path class="cls-71" d="M150.15,348.6l-2.05.12c-2.51-1.31-5.57-.42-8-2.05-.55-1.3-2.09-.69-3.79-2.3,7.21,1.51,13.67,1.11,19.79,3.27C154.12,348,151.9,346.83,150.15,348.6Z"/><path class="cls-4" d="M284.89,201.7c1.62,5.44,2.72,11.15,7.36,15.13l-.09,1.79c-1.42,2.68-3,5.3-.55,8.29.74.89-.19,1.81-.5,2.69-1.72,2.67-4.63,2.23-7.16,2.71-13.05,2.48-26.14,4.78-39.18,7.32-2.4.47-4.83,1.38-7.34.5-2.4-1.62-3.11-4.18-3.64-6.79-.95-4.69-1.82-9.4-2.42-14.16a6,6,0,0,1,2.22-4.18c7.69-4.37,16-7.16,24.53-9.34,5.2-1.46,10.36-3.06,15.59-4.35A18.73,18.73,0,0,1,284.89,201.7Z"/><path class="cls-72" d="M258.12,205.66c-7.67,4.31-16.33,6.2-24.23,9.94-3.51,1-3.26-2.08-3.67-3.81-.83-3.5-1.32-7.08-2.15-10.62,1.39,5.29,1.3,10.63.85,16-.14,1.67.14,3.37-1.8,4.23-6.33.73-12.42,2.89-18.85,3.14-1.79.07-3.56.54-5.33-.13a5.33,5.33,0,0,1-2.62-3.44c-2.92-8.1-4.38-16.54-5.86-25a3.06,3.06,0,0,1,.73-2.76c1.76-1,3.43-1,5,.47,0,3.92,2.52,7.31,2.34,11.3a1.49,1.49,0,0,0,1.86,1.25,3.52,3.52,0,0,0,2.6-2.77c.52-2.45-.22-6.19,3.83-5.59s3.28,4.34,3.33,7.28a10.56,10.56,0,0,0,0,1.49c.35,2.18-1.14,5.9,1.47,6.14,3,.29.77-3.43,1.66-5.15.54-1,.77-2.47,1.6-3,4.79-3.3,4.51-8.14,4.24-13-.22-3.75.69-6.66,4.16-8.88,2.81-1.8,3.11-5.3,3.86-8.38,1.4-5.79,2.72-11.61,4.42-17.32.79-2.65,2.14-6,5.69-5s4.59,4.31,3.79,7.7a49,49,0,0,1-6,14.65c-2.29,3.68-4.42,7.48-4.82,11.91-.11,1.24-.68,3.07.64,3.67,1.74.79,2.43-1.09,3.3-2.23a12.68,12.68,0,0,1,1-1.07c.49-.66,1.2-1.57,1.9-.83,1.41,1.51-.39,2.59-.89,3.83-.48.66-1.3,1.27-1.38,2-.3,2.5-3.06,5.61-.78,7.23,1.85,1.32,3.4-2.32,5.11-3.7s3.48-2.35,5.22-.54,0,3.24-1.2,4.59c-.72.82-2.21,1.65-1.33,2.82s2.42.56,3.64,0c1.93-.94,3.84-1.94,5.8-2.82,1.38-.63,3-1.07,4.21,0,1.45,1.36-.13,2.7-.59,4C258.52,204,257.06,204.48,258.12,205.66Z"/><path class="cls-3" d="M275,180.55c0-6.47,2.25-14.26-.59-19s-9.61-7.92-14.85-11.5c-3.82-2.62-6-8.5-12.4-6.61,9.62-2,19.2-1.9,28.79-1.74l-.36,39.7Z"/><path class="cls-73" d="M183.24,164.71a2,2,0,0,0,2.94-.67c2.51-3.39,6.1-5.09,9.95-6.37,7.1-.53,13.36,1.09,18,7,1,1.89,2.66,3.53,2.35,5.94-.72,1-1.94,1.44-2.82,2.28a23.57,23.57,0,0,1-11.57,5.56c-4.14.69-7.71,3.11-11.85,3.78a2.21,2.21,0,0,1-1.72-1.39,3.38,3.38,0,0,1,.11-2.24c2-2.83,5.23-3.26,8.21-4.13,4.13-1.22,8.25-2.35,11.82-5,2.55-1.88,2.68-3.31.06-5.29-6.39-4.85-13.26-4.26-19.65,1.8-1.44,1.37-2.35,3.93-5.18,2.83C182.84,167.56,181.92,166.3,183.24,164.71Z"/><path class="cls-74" d="M216.11,170.66l-2-6c7.71,8,4.49,22.44-6,27a1.51,1.51,0,0,1-.19-1.38,8.16,8.16,0,0,1,2.47-3C215.9,182.91,215.86,176.75,216.11,170.66Z"/><path class="cls-75" d="M240.11,189.63c.69-3.24.69-3.24-1-3,.6-3.3,3.2-4.59,6.49-6.95A16,16,0,0,1,240.11,189.63Z"/><path class="cls-76" d="M208.1,190.67c0,.31,0,.62,0,.93a12.32,12.32,0,0,1-8,2.09l-5-.05c-1-.48-1.62-1.11-1-2.28a3.52,3.52,0,0,1,2.75-.5,8.76,8.76,0,0,0,5.91,0,12.21,12.21,0,0,1,3.34-1A2.31,2.31,0,0,1,208.1,190.67Z"/><path class="cls-55" d="M126.12,233.92c2.95.71,4.35-1.19,5.18-3.44,1.49-4,2.7-8.16,4-12.24a7.15,7.15,0,0,1,8.74,4c1.59,3.31.08,5.37-2.74,6.93a8.38,8.38,0,0,1-2.9.45,2.4,2.4,0,0,0-2.2,3.21c2.44,6.73-1.88,10-6.41,13.27a10.56,10.56,0,0,1-2.44,1.45c-4.14,1.48-7.91,3.78-11.89,5.59a25.74,25.74,0,0,0-3.1,1.46c-2.85,1.42-5.91,2.35-8.83,3.61a10.93,10.93,0,0,1-2.39,1.38,62.07,62.07,0,0,0-8.94,3.69,23.4,23.4,0,0,0-5.11,2.16c-3.34,1.42-6.76,2.62-10.05,4.16-4.16,1.56-7.93,4.52-12.8,3.36-4.6-8.44-3.18-17-.33-25.51,4.24-3.3,9.53-2.59,14.34-3.75a36,36,0,0,0,9.91-1.17,17.74,17.74,0,0,1,12.28-1.91C109.25,239.27,118.3,238.94,126.12,233.92Z"/><path class="cls-77" d="M75.86,306.41l-5.63.27-1.14-.05c-1.29-1.59-3.38-1.89-5-3-4.9-2.33-7.21-6.77-9-11.47-4.27-11.06-5.29-22.62-4.86-34.37-.46-8,1.95-10.38,9-8.9,2.32,1.33,1.56,3.52,1.22,5.35-3.37,17.9,3.1,32.51,14.93,45.38a8.69,8.69,0,0,1,2.42,3.71,2.61,2.61,0,0,1-1.9,3.16Z"/><path class="cls-78" d="M59.33,249.51c-7.17-1.8-7.87,3.52-9.09,8.26a2.23,2.23,0,0,0-2.13-1.13c-2.29.81-4.82.8-7,2-1.4.73-2.83,1.37-3.7-.65-.65-1.51.29-2.56,1.33-3.42a8.24,8.24,0,0,1,5-2,11.07,11.07,0,0,0,5.58-1.82A3.37,3.37,0,0,0,51,247.41c-.24-1.87-1.68-1.71-3-1.79-1.92-.1-4.59.45-4.64-2.37,0-3.22,2.84-2.5,4.88-2.61,4.86-.27,9.66.12,14,2.56,5.33,3,10.75-.45,16.07.54-4.42,1.59-9.25,1.68-13.51,3.83A6.85,6.85,0,0,1,59.33,249.51Z"/><path class="cls-79" d="M100.47,240.66a44.09,44.09,0,0,1-12.29,1.91c1.57-3.91-.71-5.67-3.86-7s-7.14-1.48-9.13-5l16.27,4.39A16.18,16.18,0,0,1,100.47,240.66Z"/><path class="cls-80" d="M64.13,303.61c2.19.13,4.39.24,5,3l-4.33-1.2Z"/><path class="cls-81" d="M41.1,258.64c1.87-2.31,4.48-2,7-2A10.23,10.23,0,0,1,41.1,258.64Z"/><path class="cls-2" d="M295.2,232.57c2.25,6.41,2.34,13.16,3,19.81A21.27,21.27,0,0,0,299.8,265c1.18,2.8-1,5.42-3.7,6.89a8.8,8.8,0,0,0-4.61,5.55c-.95,3.42-3.08,5.51-6.84,5.27-4-.26-5.75-2.91-6.59-6.41-.39-1.61-.35-3.3-.92-4.88a97.5,97.5,0,0,0-2.74-16.56c-.12-1.87.49-3.35,2.51-3.64,1.68-.24,2.75.93,3.67,2.15,1.35,1.78,1.64,3.95,2.15,6s.63,4.25,2.5,5.7c1.51-1,1-2.24.66-3.26-2.9-8.54-5.73-17.15-15.34-20.8-1.57-.6-3-1.74-2.8-3.7s1.89-2.39,3.6-2.83a82.5,82.5,0,0,1,12.18-2.1c2.45-.23,4.92-.14,7.15-1.68S294.32,230.38,295.2,232.57Z"/><path class="cls-82" d="M278.11,271.62c1.44,1.12.73,2.76,1.05,4.16.7,3.05,1.82,5.72,5.65,5.86,3.54.13,5-1.67,5.51-5,.41-2.67,1.53-4.81,4.73-5.63s5.25-3.95,3.61-6.5c-2.77-4.3-4.26-7.92-.42-12.13,1.25,3.41,2.78,6.76,3.71,10.26,2.11,7.93.3,15.12-4.78,21.54-1.75,2.22-3.4,4.52-5.1,6.78-2,2.1-4,4.23-6.12,6.27-4.55,4.47-9.89,5.34-15.83,3.32-1.17-1.38-.59-2.86-.07-4.21,2.75-7.06,5.33-14.17,6.55-21.7A4.34,4.34,0,0,1,278.11,271.62Z"/><path class="cls-82" d="M295.2,232.57c-1.08-.36-1.73-2.47-2.76-1.69-6.28,4.78-14.15,2.05-20.87,4.65-1.21.46-2.85.26-3,2s1.4,2.18,2.58,2.58c11.55,3.89,13.52,14.48,16.87,24.08a2.47,2.47,0,0,1-1.66,3.21c-1.55.51-2.55-.4-3.17-1.71-1.43-3-1.65-6.37-2.44-9.56-.44-1.75-1.36-3.63-3.33-4-1.73-.36-2.11,1.17-2.24,2.58-2.57,0-2.57-2.22-3-3.75-1.07-3.82-3.15-5.55-7.19-4.41a22.85,22.85,0,0,1-5.84.5,29.86,29.86,0,0,1-3.14-.13c-5-.93-9.89-2.68-14.92-3.67-1.77-.34-3.62-.82-4.17-3l.33-.74,53.89-9.85C293.07,229.76,295.54,229.23,295.2,232.57Z"/><path class="cls-83" d="M371.11,325.64c-6.14,2.11-12.49,1.08-18.66.67-3.45-.23-7-1.09-10.37-.56-6.87,1.08-11.6-2.18-16-6.64-3.16-3.21-6.63-6-11-7.48,0-6.31,0-12.62,0-18.93,0-2.66.54-2.82,3.17-1.76,3.82,1.54,5.35,5.28,8.63,7.27,4.17,2.54,7.55,6.09,12.4,7.91,3.21,1.21,5.36,5,8.14,7.45,2,1.81,4.51,3.68,5.85,5.83C357.72,326.52,364.34,326,371.11,325.64Z"/><path class="cls-4" d="M239,329.93l-5.87,2.7c-10.36,2.18-20.71,4.42-31.09,6.5-7.95,1.6-15.91,3.13-23.91,4.4-6.33,1-8.44-.74-8-7.19,1.2-16.77.68-33.56,1.08-50.34.11-4.75,1.3-9.5,2.36-14.17,1-4.45,3.1-5.45,7.3-3.22,6.73,3.58,13.44,7.29,19.82,11.48,9.25,6.07,19.53,9.91,29.53,14.34a46.21,46.21,0,0,1,6.91,3.9c2.56,1.73,1.69-.67,2.09-1.56,2.95,4.64,3.66,9.31.35,14.12-1.12,1.64-2,3.39-1.64,5.51-2.35,3.22-6.65,5.61-4.88,10.78,3.07-.49,1.78-6.05,6-4.59Z"/><path class="cls-84" d="M268.46,300.65c-4.28,6.82-5.16,7.26-11.24,5.68L253,301.54c1.36-5.47,6.06-8.84,8.55-13.61A24.32,24.32,0,0,0,266,276.57c1.3-8.21,1.43-16.32-1.64-24.22-.71-1.82-1.73-3.61-.64-5.63,5.2-2.51,7.24-1.47,8.93,4,1.79,5.82,4.21,11.47,4.42,17.67C277.49,280,273.28,290.42,268.46,300.65Z"/><path class="cls-84" d="M238.12,293.6c-1.84-6-7.49-8.35-11.71-11.94-6.65-5.64-13.85-10.64-19.75-17.1-1.61-1.77-4-1.33-5.5-2.92,2.77-2.84,5.16-6,8.21-8.61,1.3-.31,2.44-.19,3.09,1.2-.66,5.19,2.28,8.3,6.18,11,10.09,7,21,12.66,31.43,19.09,2.1,1.29,4.4,2.32,6.18,4.11-.25,4.94-3.08,8.08-7.22,10.3-2.7-1.92-5.42-3.82-8.08-5.8C239.65,292,238.63,291.54,238.12,293.6Z"/><path class="cls-85" d="M264.11,308.63c1.61-1.86,3.21-3.74,4.84-5.6a5.38,5.38,0,0,1,1-.95c3.36,2.72,8.38-.72,11.52,3.29a18.71,18.71,0,0,0,7.55,6.27c1.85.73,2.12,2.32,2.09,4.08,0,3.31,0,6.61,0,9.92C278,326.39,271.74,316.45,264.11,308.63Z"/><path class="cls-86" d="M249,298.72c2.45-3.25,5.54-6.07,6.84-10.1.28-3.08,1.75-6,1.23-9.19,4.4-.62,4.12,2.35,3.56,5-.36,1.73-.64,2.88,1.58,3.05a.82.82,0,0,1-.06,1.17c-2.54,4.65-5.89,8.74-9.17,12.86A6.38,6.38,0,0,1,249,298.72Z"/><path class="cls-87" d="M239.11,322.59c-2.57.4-2.5,2.71-3.28,4.44-.51,1.15-.89,2.72-2.65,2.39s-2.06-1.87-2.15-3.43c-.22-3.84,2.95-8.24,6.92-9.59,1.91,1.27,4.1,2.38,3,5.34A1.7,1.7,0,0,0,239.11,322.59Z"/><path class="cls-84" d="M194.24,191.43c-.39,1,.51,1.51.91,2.21,2.61,10.19,3.41,20.85,8,30.52,3.69,4.81,2.75,10.54,3.18,16a4.67,4.67,0,0,1-1.36,2.9c-2,1.55-3.81.83-5.24-.82-4.53-5.24-9.52-10.19-11.68-17.07s-3.25-14-1-21.19c.4-1.25.79-2.53,0-3.79-1.35-1.73-3.53-1-5.23-1.78a2.43,2.43,0,0,1-1.12-1c.63-9.7-4.95-17.53-7.87-26.16-.62-1.86-1.85-3.5-1.87-5.56.25-2.27-1.43-4.42-.43-6.73,2.53-1.36,3.1.82,3.74,2.3,1.23,2.89,2.26,5.86,4.14,9.4-1.48-7.27-6.22-12.86-5.26-19.9a3.23,3.23,0,0,1,2-2.05l0,0c2.44-1.67,2.8.86,3.89,1.91,1,4.8,1.83,9.63,4.16,14a6.39,6.39,0,0,0,1.5,4,6.76,6.76,0,0,1,1.37,2.27c1,3.22,1.95,6.43,3,9.62l1.11,1C192.41,184.54,195,187.3,194.24,191.43Z"/><path class="cls-49" d="M179.08,150.68c-1.18-.87-2.28-1.9-3.89-1.91l.9-2.11h2C178.45,148,178.76,149.34,179.08,150.68Z"/><path class="cls-88" d="M59.33,249.51a9.43,9.43,0,0,1,5.44-1.94,52.71,52.71,0,0,0-1.5,20.23c.18,1.75.16,3.7,1.78,5a2.84,2.84,0,0,1,.22,3.13c2.8,9.72,6.89,18.63,15.59,24.6a5.24,5.24,0,0,1-.11,1l-.75.75a2.06,2.06,0,0,1-2.13,1.23c-14.7-13.15-22-29.11-18.71-49.11C59.41,252.78,60.25,251.15,59.33,249.51Z"/><path class="cls-23" d="M77.87,303.46,80,302.23c-.71,2-1,4.44-4.08,4.24Z"/><path class="cls-89" d="M268.46,300.65c2.12-6.29,4.36-12.55,6.33-18.9,3.58-11.54-.08-22.41-3.58-33.2-1.21-3.73-4.44-2.59-7.2-1.81a3.78,3.78,0,0,1-2.12.9c-1.28-.13-2.73,0-2.84-1.91,1,0,2,0,3-.11,8.94-.62,8.93-.62,12.2,7.88a4.81,4.81,0,0,0,.91,1.13,39,39,0,0,1,3,17c-.52,8.34-3.25,16.09-6.33,23.76-.67,1.68-1.11,3.45-1.66,5.17Z"/><path class="cls-90" d="M188.17,54.38a3.66,3.66,0,0,1,4.92.18Z"/><path class="cls-84" d="M181.12,197.63l1.21.1c3.18,8.73,1.52,18.17,4,27a12.15,12.15,0,0,0,3.41,8.21c3.76,5,8.47,9.2,11.89,14.46.07,2.13-1.58,3.26-2.73,4.67-1.13,1.05-1.55,2.68-2.9,3.55a9.08,9.08,0,0,0-5-5.09c-5.4-2.22-9.76-5.6-11.34-11.64a2.83,2.83,0,0,0-3.37-2.25c.24-4.42-.33-8.81-.56-13.21-.11-2-.23-4,1.2-5.66-1.43-3.51-.77-7.19-.79-10.79a27,27,0,0,0-1-8.3c-1.48-2.91-1.37-6.27-2.6-9.26a11.32,11.32,0,0,0-1.15-2.7,18.29,18.29,0,0,1-.79-2.9c-.18-3.8-2.73-7.24-1.68-11.22,3.66-1.22,3.54,2.05,4.3,3.86C176.11,183.41,177.48,190.94,181.12,197.63Z"/><path class="cls-91" d="M169.8,215.69c.07,1.86-.19,3.91,2.37,4.43a2.07,2.07,0,0,1-.46,1.37c-3,6.09-.32,11.89.92,17.77a108.8,108.8,0,0,1,.61,25.31c-3.15-2.12-3.09-5.2-3.43-8.09-.29-2.48,0-5-.22-7.49-.49-6.2-.9-6.53-6.58-5.23-2.29-4.82-1-10-1.61-15,0-7.5,1-14.8,4.11-21.71.68-1.52,1.23-3.38,2.49-.34C168.67,209.68,167.28,213.07,169.8,215.69Z"/><path class="cls-92" d="M138.1,208.46l1-1c1.29-.38,2.2.48,3.26.92,2,.82,3.83,3.37,6.31,1.57a6.4,6.4,0,0,0,2.35-7.58c.66-5.4,1.05-5.66,7.06-4.7,2.59,2.84,3.34,5.43-1.06,7.23-1.4.57-1.71,1.85-2.28,3-3,6.26-6.64,7.4-13.07,4.23-1.17-.58-2.42-1-3.63-1.48C138.07,209.93,138.09,209.19,138.1,208.46Z"/><path class="cls-93" d="M172,220.76a.56.56,0,0,0,.21-.64c1.6-.76,2.45-3.06,4.78-2.35a51.93,51.93,0,0,0,1.12,13.33c.45,2.22.64,4.27-1.76,5.54l-1.87.53c-.66-.07-1.5-.26-1.65-.85C171.52,231.2,169.93,226.07,172,220.76Z"/><path class="cls-94" d="M161.11,243.61c-3.06,1.18-5.12,4.61-9,4,.17-3.39,3.79-4.28,5-6.91q1.52-3.56,3.05-7.12c.79-.45,2-.51,2,.36C162.4,237.21,163.85,240.68,161.11,243.61Z"/><path class="cls-95" d="M160.09,177.66a110.18,110.18,0,0,1,6.15-19.1c1.2,4,.4,8-.24,12l0-.06a8.59,8.59,0,0,0-.79,1.94,8.16,8.16,0,0,1-1.89,4.89C162.54,178.41,161.4,180.22,160.09,177.66Z"/><path class="cls-96" d="M129,245.58c1.36-1.17,2.78-2.29,4.09-3.52,2.13-2,3.52-4.14,2.36-7.41-.89-2.5-1-5.24,2.67-6,.55.52,1.52.8,1,1.88-1.19.39-2.29,1.14-1.77,2.46,2.45,6.26-.87,10.2-5.28,13.78a1.68,1.68,0,0,1-1.16.24A3.17,3.17,0,0,1,129,245.58Z"/><path class="cls-97" d="M140.9,228.48c1.31-1.45,3.71-2.4,2.41-5.09-1.61-3.35-4.16-5.24-8-5.15l1.35-4.27c2,3,6,3.14,8,6.32,2.38,3.81,2.56,6.85-1.59,9.36C142.51,229,141.29,229.52,140.9,228.48Z"/><path class="cls-98" d="M160.09,177.66c4.88.67,2.9-4.37,5-6a3.61,3.61,0,0,1-.07,4c-1.23,1.34-1.27,3-1,4.63a10.4,10.4,0,0,0,.1,6.79C160.61,186.83,158.65,182.19,160.09,177.66Z"/><path class="cls-99" d="M65.27,275.91c-.55-1-1-2-.22-3.13l11.87-4.22c1.23-.29,2.67-1.26,3.15.95Z"/><path class="cls-100" d="M114.91,252.49a58,58,0,0,1,12.18-5.89c.64.64,1.9.18,2.28,1.29-1.37,2.46-4.18,2.5-6.29,3.73l-6,1.91C116.37,253.11,115.3,253.49,114.91,252.49Z"/><path class="cls-101" d="M169.8,215.69c-1.3.73-2.42.36-2.48-1.06-.13-2.65-1-5.43.68-7.94C170.45,209.32,172.32,212.07,169.8,215.69Z"/><path class="cls-102" d="M146.87,192.46c1.21.1,2.48.41,3.3-.91l2,1.07c1.17,3.1.39,5.37-2.79,6.64-1.77.46-3.31.26-4.32-1.49a2.65,2.65,0,0,1,1-2.28c1.28-.56.92-1.25.15-2Z"/><path class="cls-103" d="M80.07,269.51c-.81-1.11-2-.8-3.15-.95l10-4c1.27-.51,1.92.19,2.41,1.22A27.18,27.18,0,0,1,80.07,269.51Z"/><path class="cls-104" d="M166,170.6l.24-12c1.11-2.34,0-4.6-.26-6.89a2.52,2.52,0,0,1,1.94,2.05A40.78,40.78,0,0,1,166,170.6Z"/><path class="cls-105" d="M164.08,187.08c-3.39-2.21-.49-4.52-.1-6.79-.77,5.41,2.72,4.82,6.13,4.35.34-.48.7-.49,1.07,0l1,2c.52,1.1.86,2.11-1,2C169.27,185.77,166.82,185.75,164.08,187.08Z"/><path class="cls-106" d="M91.76,262.46a26.69,26.69,0,0,1,9.36-3.81c.6.6,1.75.1,2.16,1.09a27.9,27.9,0,0,1-9.11,4C93.22,263.61,92.23,263.52,91.76,262.46Z"/><path class="cls-106" d="M103,257.57a37,37,0,0,1,9.15-3.84c.63.45,1.64.1,2.07,1a17.38,17.38,0,0,1-8.18,3.83C105.21,257.66,103.76,258.73,103,257.57Z"/><path class="cls-107" d="M161.11,243.61c.86-3.45,2.67-7-.92-10,.4-1.62.81-3.24,1.21-4.86,2.06,4.76,1.75,9.74,1.45,14.73q0,.74-.63.45Z"/><path class="cls-108" d="M149.09,198.62c2.18-1.41,3.72-3.14,3-6,.43,3.53,3.57,3.84,6,5-5.89-.1-6.3.31-5.8,5.92C149.13,203.28,149.85,200.47,149.09,198.62Z"/><path class="cls-109" d="M173.17,188.56a19.35,19.35,0,0,1,1.94,10.12c-2.33-1.39-2.4-3.87-2.9-6.13C173.22,191.39,171.61,189.59,173.17,188.56Z"/><path class="cls-110" d="M91.76,262.46c.95.18,1.92.31,2.41,1.31l-4.8,2L87,264.56A9.4,9.4,0,0,1,91.76,262.46Z"/><path class="cls-111" d="M157.14,240.72c-.38,3.24-3.92,4.19-5,6.91l-1.88-.23Z"/><path class="cls-55" d="M123.08,251.62l6.14-3.92c.25-1,.75-1.53,1.84-1.15l1,.25A11.53,11.53,0,0,1,123.08,251.62Z"/><path class="cls-112" d="M173.17,188.56c-.25,1.35.42,2.92-1,4-.35-1.32-.71-2.65-1.07-4l1-2A2.16,2.16,0,0,1,173.17,188.56Z"/><path class="cls-113" d="M114.23,254.71a2.37,2.37,0,0,1-2.07-1c.9-.44,1.56-1.43,2.75-1.24l2.14,1Z"/><path class="cls-114" d="M140.9,228.48c.85.17,1.77.23,2.22,1.17a4.72,4.72,0,0,1-4,.91l-1-1.88Z"/><path class="cls-115" d="M103,257.57c1,.28,2.29-.17,3,1l-2.77,1.2c-.81-.19-1.72-.17-2.16-1.09Z"/><path class="cls-104" d="M171.18,184.61l-1.07,0c-3.91-11.61-.88-22.83,1.86-34.08a2.39,2.39,0,0,1,1,1.29c.17,2.44.69,5-1.72,6.77a10.39,10.39,0,0,0,.75,6.77c-1,2.34-1.14,5-2.53,7.21C168.14,176.88,171.5,180.47,171.18,184.61Z"/><path class="cls-104" d="M165,175.66c0-1.34,0-2.68.07-4l.93-1.11C166,172.31,166.78,174.23,165,175.66Z"/><path class="cls-49" d="M172.19,151.77c-.07-.4-.15-.8-.22-1.2.79-1.12,1.62-2.18,3.25-1.82l-1.28,1.54C173.71,151.2,173.41,152,172.19,151.77Z"/><path class="cls-116" d="M149.09,198.62c3.34.17.76,4.19,3.21,4.94,1.38,3.65-1.16,5.67-3.26,7.87-2.42,2.52-3.69-.59-5.38-1.22a25.77,25.77,0,0,1-4.53-2.78c1.29-3.64,4.16-6.3,5.9-9.66A5.4,5.4,0,0,0,149.09,198.62Z"/><path class="cls-117" d="M146.15,193.52c1.21.06,3.31-.55,3.29.89,0,2.1-2.16,1-3.44,1.08Z"/><path class="cls-118" d="M162.22,243.92a.72.72,0,0,1,.63-.45c6.33-4.89,6.74-4.82,8,3.1.9,5.61-.59,11.5,2.08,17.64a149.42,149.42,0,0,0-.83-25.57.7.7,0,0,1,1-.07c1.81,8,1,16.12,1.71,24.17.36,4-3.6,3.91-6.66,4s-3.75-1.35-4.27-4.14C162.75,256.42,164,250,162.22,243.92Z"/><path class="cls-119" d="M196,255.62c0-1.69.42-3.13,2.06-4a4.07,4.07,0,0,1,2.81.8c2.82,2.15,4.55.83,5.87-1.8,2-3.94,5-7.34,5-12.23,0-2.78,2-4.08,4.91-3a20.25,20.25,0,0,0,6.87.87c2.84,2.62,1,4.87-1.3,5.62-3.77,1.25-5.9,3.87-7.92,6.86a19.73,19.73,0,0,1-4.79,4.94c-2.4,3-3.71,7.22-8.31,7.95C199.43,259.63,197.71,257.62,196,255.62Z"/><path class="cls-120" d="M173.12,238.57l-1,.07c-3.93-1.48-1.44-5.19-2.54-7.74-1-2.24-.36-5.17-.45-7.79-.08-2,1.08-2.55,2.84-2.35q.53,6,1.06,11.9c.14,1.61-.27,3.39,1.43,4.51C174,237.63,173.56,238.1,173.12,238.57Z"/><path class="cls-71" d="M175.12,347.64a38.17,38.17,0,0,1-19,0Z"/><path class="cls-121" d="M232.1,218.48c2.44,6.81,1.82,14.37,5.12,21a.38.38,0,0,1-.57.33c-3.7,2.53-6.92,1-7.63-4-.59-4.1-.37-8.3-.69-12.45C229,221.28,229.29,218.9,232.1,218.48Z"/><path class="cls-122" d="M232.1,218.48l-3,4c-1.66.63-2.06-.39-2.23-1.7.19-4.75,2.1-9.4.71-14.23-.42-1.44-.83-2.87-1.11-4.33s-1.29-3.85.89-4.21c2.39-.4,2.45,2.16,2.7,3.9.42,2.94.55,5.94,1.15,8.84.36,1.79.11,4.16,2.67,4.82Z"/><path class="cls-55" d="M226.88,220.81l2.23,1.7c1.36,4,.86,8.12,1,12.21.19,4.62,2.06,6,6.53,5.07,3.25,3,7.73,2.33,11.54,3.7,2.62.95,5.39,1.51,8.1,2.25,4.32,2.75,5.55,7.34,6.57,11.83,1.22,5.36.72,10.89.32,16.33-.18,2.42-1.25,4.62-4.5,3.79-14.9-7.61-29-16.62-43.6-24.8-1.49-.84-2.76-1.91-2.35-3.94,2.52-3.15,3.45-7.91,9.14-7.72,1.51.05,3-2.41,1.44-4.65-3.57-.44-6-3.46-9.46-4.2-4.77-1-5.91-.3-6,4.45,0,1.88.08,3.8-2.62,3.81a105.06,105.06,0,0,0-2.09-16.48c6.14-2,12.89-.9,18.87-3.79C223.64,219.59,225.26,220.6,226.88,220.81Z"/><path class="cls-123" d="M185.11,170.64c-.13-.65-.25-1.29-.37-1.93,3-3,5.61-6.51,9.84-8.09a15.81,15.81,0,0,1,16.56,3.74c2.06,2.09,1.45,3.67-.58,5.33-3.84,3.13-8.36,4.72-13.05,5.84a37.19,37.19,0,0,0-8.37,3.09C186.27,176.73,186.74,173.15,185.11,170.64Z"/><path class="cls-124" d="M194.24,191.43l-4-9.83a37.84,37.84,0,0,1,11.06-4.12,23.85,23.85,0,0,0,11.82-5.79c2.72-.28,2.79,1.67,2.94,3.51.43,5.35-2,11.68-10.12,15.35l-2.85,1.14a8.23,8.23,0,0,1-6-.11Z"/><path class="cls-125" d="M206,190.55c5.32-3.43,9.45-7.61,9.39-14.52,0-1.83.11-3.7-2.21-4.34.66-1.3,1.88-1,3-1,2.63,7.75.42,13.26-8,20Z"/><path class="cls-126" d="M185.11,170.64c2.32,2.17,2.13,5.6,4,8v2A16.66,16.66,0,0,1,185.11,170.64Z"/><path class="cls-127" d="M197.1,191.58l6,.11C201.07,193.09,199.07,193.21,197.1,191.58Z"/><path class="cls-115" d="M131.06,246.55l-1.84,1.15c-.83-.14-1.71-.17-2.13-1.1l1.92-1Z"/><path class="cls-128" d="M258.11,276.66c3.54,1.32,3.7-1.19,4-3.53,1.12-9.77-.22-19-5.78-27.4h2.75c.82,1,2.08.71,3.13,1,5.25,8.21,5.89,17.34,5.37,26.71a1.1,1.1,0,0,1-1.24,1.16c-2.34-3.19-1.48-6.84-1.68-9.73-.6,3.35,1.07,7.53-.72,11.44-.63,1.37-1.34,2.78-3.07,2.87S257.92,278.7,258.11,276.66Z"/><path class="cls-129" d="M266.13,274.66c2.57-8.43.27-16.33-2.63-24.17-.46-1.23-.88-2.48-1.32-3.73l1.83,0c2.5,7.49,5.13,14.93,4.23,23.08a43.71,43.71,0,0,1-1.16,7.8.88.88,0,0,1-1.19.12,2.43,2.43,0,0,1-.25-2.6Z"/><path class="cls-130" d="M266.21,277.71l.87-.09c-.79,4.06-1.68,8.07-4.9,11.06l-.18-1.09c-.23-2.95.83-5.58,2-8.21A4.79,4.79,0,0,1,266.21,277.71Z"/><path class="cls-55" d="M257,279.71c3.94,3.54.11,6.06-1.17,8.91-14-7.48-27.86-15.22-40.71-24.59-3-2.17-6-5.21-2.74-9.57,2-1,3.55.22,5.07,1.1q18.45,10.71,36.91,21.4C255.54,277.62,256.76,278.22,257,279.71Z"/><path class="cls-88" d="M257,279.71q-19.86-11.41-39.74-22.83c-1.57-.9-3.25-1.62-4.88-2.42-.74-1.2-1.9-.79-2.95-.76,1.09-1.59,2.19-3.17,3.28-4.75.55,2.05,2.44,2.58,4,3.49l41.37,24.22c2.12,3.13,3.66,2.23,4.75-.76,1.54-4.24,1.18-8.75,1.85-13.19q.72,6,1.42,12v0c-1.28,1.47.17,3.5-1,5-1.42,2.5-1.06,5.7-3.1,8-1.16.45-2.07,1.68-3.55,1.21C257,285.89,264.16,281.7,257,279.71Z"/><path class="cls-131" d="M205.25,240.64c1.84-1.24,1.58-2.77,1.1-4.74-1-4.25.48-5.79,4.9-5.21,4.65.6,8.87,2.24,12.07,5.89-2.13,2.06-4.42,1-6.49.08-3.81-1.65-4.4.79-4.32,3.43.18,6.18-4,10.37-7.32,14.45-2.73,3.38-4.62-2-7.15-2.87l3.12-4c.18-2,1.42-3.34,2.88-4.53Z"/><path class="cls-132" d="M204,243.11a9.4,9.4,0,0,1-2.88,4.53,124.73,124.73,0,0,1-12.07-14,38.25,38.25,0,0,1-3.9-8.1c-1.21-5.76-2.84-11.48-1.47-17.46a3.11,3.11,0,0,0-.84-3.19c-2.52-2.24-1.69-4.67-.55-7.16,2-.13,4-.6,5.77,1,.89,1.61.38,3.11-.15,4.74a30.78,30.78,0,0,0,1.25,22.19c2.6,6,7,10.75,11.11,15.73C201.29,242.54,202.29,243.59,204,243.11Z"/><path class="cls-133" d="M169.43,172.6c-.51-2.87.12-5.35,2.53-7.21q4.18,10.38,8.38,20.75c1.53,3.75,2.81,7.5.78,11.49-2.44,0-2.8-1.86-3.38-3.63-1.89-5.84-3.76-11.67-5.84-17.44C171.4,175.15,171.6,173.06,169.43,172.6Z"/><path class="cls-134" d="M172.19,151.77l1.75-1.48c0,6.16,3,11.41,5,17a14.32,14.32,0,0,1,1,2.77c.15,1.05.68,2.58-.75,3S177.6,171.94,177,171c-2.3-3.95-2.65-8.81-5.82-12.35C171.27,156.3,172.67,154.17,172.19,151.77Z"/><path class="cls-135" d="M189.2,225.61c-4.59-6.85-3.55-14.31-2.12-21.7.33-1.73,1.15-3.39,1-5.23a2.28,2.28,0,0,1,1,3C186,209.71,187.26,217.65,189.2,225.61Z"/><path class="cls-136" d="M185.19,225.54a23.74,23.74,0,0,1,3.9,8.1A9.93,9.93,0,0,1,185.19,225.54Z"/><path class="cls-137" d="M155.81,199.74c.9,0,1.66.5,1.68,1.36s-.74,1.34-1.65,1.36a1.41,1.41,0,0,1-1.61-1.38C154.2,200.15,154.86,199.69,155.81,199.74Z"/><path class="cls-128" d="M265.1,279.62c.24-1.68-.65-3.59,1-5,0,1,.05,2,.08,3.07C266.05,278.46,266,279.26,265.1,279.62Z"/><path class="cls-138" d="M185.2,202.91c-1.28,0-1.09-.81-1.16-1.36-.11-.9.23-1.65,1.25-1.66a1.1,1.1,0,0,1,1.14,1.26A6,6,0,0,1,185.2,202.91Z"/></g></g></svg>