<svg xmlns="http://www.w3.org/2000/svg" width="24" height="24" viewBox="0 0 24 24">
    <g fill="none" fill-rule="evenodd">
        <path fill="#FBB017" d="M20.116 8.29l-4.531-4.534a.23.23 0 0 0-.258-.051.234.234 0 0 0-.146.218v4.573c0 .129.107.234.235.234h4.582a.236.236 0 1 0 .118-.44z"/>
        <g fill="#FFF">
            <path d="M19.988 18.623h-8.803a.677.677 0 1 1 0-1.354h8.124V7.458l-2.854-2.858H6.826v8.306a.677.677 0 0 1-1.354 0V3.92c0-.373.303-.676.676-.676h10.586c.18 0 .351.07.478.197l3.252 3.255a.662.662 0 0 1 .199.478v10.771a.676.676 0 0 1-.675.676zM6.149 20.756a.677.677 0 0 1-.677-.677v-4.266a.677.677 0 1 1 1.354 0v4.266a.677.677 0 0 1-.677.677z"/>
            <path d="M8.283 18.623H4.017a.677.677 0 0 1 0-1.354h4.266a.676.676 0 1 1 0 1.354z"/>
        </g>
        <path d="M0 0h23.998v24H0z"/>
    </g>
</svg>
