<svg xmlns="http://www.w3.org/2000/svg" width="16" height="16" viewBox="0 0 16 16">
    <g fill="none" fill-rule="nonzero">
        <path d="M.002 0H16v16H.002z"/>
        <path fill="#FBB017" d="M13.654 4.222H2.348a.158.158 0 0 0-.157.157v2.577c0 .087.071.156.157.156h11.307a.156.156 0 0 0 .156-.156V4.379a.158.158 0 0 0-.157-.157z"/>
        <g fill="#5F51A1">
            <path d="M13.654 13.649H2.348a.451.451 0 0 1-.451-.452V4.379c0-.249.202-.451.451-.451h11.307a.45.45 0 0 1 .451.451v8.818a.452.452 0 0 1-.452.452zm-10.855-.902h10.404V4.831H2.799v7.916z"/>
            <path d="M4.562 6.042a.45.45 0 0 1-.451-.452V2.801a.45.45 0 0 1 .902 0V5.59a.45.45 0 0 1-.451.452zM8.001 6.042a.452.452 0 0 1-.452-.452V2.801a.452.452 0 0 1 .902 0V5.59a.45.45 0 0 1-.45.452zM11.439 6.042a.452.452 0 0 1-.452-.452V2.801a.451.451 0 0 1 .903 0V5.59a.45.45 0 0 1-.451.452z"/>
        </g>
    </g>
</svg>
