<svg xmlns="http://www.w3.org/2000/svg" width="24" height="24" viewBox="0 0 24 24">
    <g fill="none" fill-rule="evenodd">
        <path d="M-20-16h246v56H-20z" opacity=".347"/>
        <g transform="translate(1 1)">
            <path stroke="#CCCCCD" stroke-linecap="round" stroke-linejoin="round" stroke-width="1.2" d="M12.07 18.96l-.87-2.81L15.36 13l-.47 3.14zM3.04 9.93l3 .98 3.16-4.3-3.34.5z"/>
            <path stroke="#CCCCCD" stroke-linecap="round" stroke-linejoin="round" stroke-width="1.2" d="M9.76 16.65l-4.41-4.41a19.83 19.83 0 0 1 14-11.19A1.28 1.28 0 0 1 21 2.62 19.83 19.83 0 0 1 9.76 16.65z"/>
            <path fill="#CCCCCD" d="M5.35 14.34l2.31 2.31A6.35 6.35 0 0 1 2.21 21 1 1 0 0 1 1 19.79a6.35 6.35 0 0 1 4.35-5.45z"/>
            <ellipse cx="15.081" cy="6.92" fill="#CCCCCD" rx="1.42" ry="1.14" transform="rotate(-45 15.08 6.92)"/>
            <path stroke="#CCCCCD" stroke-linecap="round" stroke-linejoin="round" stroke-width="1.2" d="M7.49 14.38l4.81-4.8"/>
        </g>
    </g>
</svg>
