<svg xmlns="http://www.w3.org/2000/svg" width="24" height="24" viewBox="0 0 24 24">
    <g fill="none" fill-rule="evenodd">
        <path d="M.003 0H24v24H.003z"/>
        <path fill="#FBB017" d="M16.31 3.94a.239.239 0 0 0-.167-.068h-.002a.231.231 0 0 0-.164.07l-3.053 3.1a.234.234 0 0 0 0 .332l3.573 3.573a.234.234 0 0 0 .333 0l3.05-3.1a.233.233 0 0 0 0-.332L16.31 3.94z"/>
        <g fill="#5F51A1">
            <path d="M20.61 20.571H3.393a.676.676 0 1 1 0-1.353H20.61a.676.676 0 1 1 0 1.353zM7.86 16.64a.672.672 0 0 1-.479-.2.666.666 0 0 1-.197-.504l.143-3.716a.678.678 0 0 1 .197-.454l8.14-8.139a.677.677 0 0 1 .479-.198c.181 0 .351.07.477.198l3.574 3.574a.677.677 0 0 1 0 .957l-3.249 3.25a.674.674 0 0 1-.957 0 .674.674 0 0 1 0-.958l2.77-2.772-2.615-2.614-7.47 7.471-.108 2.72 2.721-.104 3.018-3.016a.674.674 0 0 1 .957 0 .676.676 0 0 1 0 .958l-3.204 3.204a.669.669 0 0 1-.453.198l-3.717.143-.027.001z"/>
        </g>
    </g>
</svg>
