<svg xmlns="http://www.w3.org/2000/svg" width="24" height="24" viewBox="0 0 24 24">
    <g fill="none" fill-rule="evenodd">
        <path fill="#FFB003" d="M12 9.18a2.82 2.82 0 1 0 0 5.64 2.82 2.82 0 0 0 0-5.64z"/>
        <path stroke="#5E50A1" stroke-linecap="round" stroke-linejoin="round" stroke-width="1.2" d="M4.91 17.34l1.43-2.12A6 6 0 0 1 6 14.5c-.1-.247-.19-.507-.27-.78l-2.51-.48v-2.48l2.52-.48a6.16 6.16 0 0 1 .62-1.5L4.91 6.66l1.75-1.75 2.12 1.44a6.16 6.16 0 0 1 1.5-.62l.48-2.52h2.47l.49 2.52a6.16 6.16 0 0 1 1.5.62l2.12-1.44 1.75 1.75-1.43 2.12c.264.475.472.978.62 1.5l2.51.49v2.47l-2.52.48a6.16 6.16 0 0 1-.62 1.5l1.43 2.12-1.74 1.75-2.12-1.44a6.16 6.16 0 0 1-1.5.62l-.48 2.52h-2.48l-.48-2.52a6.56 6.56 0 0 1-1.5-.61l-2.12 1.43"/>
    </g>
</svg>
