<svg xmlns="http://www.w3.org/2000/svg" width="24" height="24" viewBox="0 0 24 24">
    <g fill="none" fill-rule="nonzero">
        <path d="M0 0h24v24H0z"/>
        <path fill="#FBB017" d="M12.002 8.248a2.05 2.05 0 0 0-2.047 2.048v3.542a.18.18 0 0 0 .179.178h3.732c.099 0 .18-.083.18-.179v-3.541a2.049 2.049 0 0 0-2.044-2.048z"/>
        <g fill="#5F51A1">
            <path d="M12.002 5.781a.677.677 0 0 1-.679-.676v-1.37a.677.677 0 1 1 1.355 0v1.37a.676.676 0 0 1-.677.676z"/>
            <path d="M18.05 17.712H5.954a1.902 1.902 0 0 1-1.902-1.899v-.752c0-1.048.852-1.902 1.902-1.902h.378v-3.072a5.653 5.653 0 0 1 2.97-4.978.676.676 0 1 1 .643 1.191 4.303 4.303 0 0 0-2.258 3.787v3.752a.676.676 0 0 1-.676.675H5.953a.547.547 0 0 0-.546.547v.752c0 .3.245.543.546.543h12.095a.543.543 0 0 0 .545-.543v-.752a.546.546 0 0 0-.545-.547H16.97a.676.676 0 0 1-.677-.675v-3.752a4.308 4.308 0 0 0-4.302-4.305.677.677 0 0 1 0-1.353 5.663 5.663 0 0 1 5.657 5.658v3.074h.4c1.047 0 1.9.852 1.9 1.902v.751a1.901 1.901 0 0 1-1.898 1.898z"/>
            <path d="M12.002 20.943a3.122 3.122 0 0 1-3.12-3.116c0-.43.121-.795.212-1.033a.674.674 0 0 1 .634-.437h4.547c.282 0 .533.173.633.437.092.239.213.603.213 1.034a3.122 3.122 0 0 1-3.12 3.115zm-1.757-3.231a.747.747 0 0 0-.007.116 1.766 1.766 0 0 0 3.529 0 .747.747 0 0 0-.008-.116h-3.514z"/>
        </g>
    </g>
</svg>
