<svg xmlns="http://www.w3.org/2000/svg" width="24" height="24" viewBox="0 0 24 24">
    <g fill="none" fill-rule="evenodd">
        <path d="M.002 0H24v24H.002z"/>
        <g transform="translate(6 1.5)">
            <circle cx="6.003" cy="17.331" r="1.19" fill="#FBB017"/>
            <path fill="#5F51A1" fill-rule="nonzero" d="M9.69 20.224H2.313a2.295 2.295 0 0 1-2.294-2.29V3.069A2.296 2.296 0 0 1 2.313.776h7.378a2.295 2.295 0 0 1 2.294 2.293v14.865a2.294 2.294 0 0 1-2.295 2.29zM2.313 2.128a.94.94 0 0 0-.939.941v14.865a.94.94 0 0 0 .939.938h7.378a.94.94 0 0 0 .941-.938V3.069a.941.941 0 0 0-.94-.94H2.313z"/>
            <path fill="#FBB017" d="M9.303 5.364h-6.6a.677.677 0 1 1 0-1.354h6.6a.677.677 0 0 1 0 1.354z"/>
            <path fill="#5F51A1" d="M11.309 15.828H.696a.677.677 0 1 1 0-1.354h10.611a.677.677 0 0 1 .002 1.354z"/>
        </g>
    </g>
</svg>
