<svg xmlns="http://www.w3.org/2000/svg" width="24" height="24" viewBox="0 0 24 24">
    <g fill="none" fill-rule="evenodd">
        <path fill="#E99423" d="M18.724 5.866c-3.69-3.726-9.377-3.834-13.036-.234L18.6 18.544c3.436-3.5 3.509-9.258.124-12.678"/>
        <path fill="#FED245" d="M5.688 5.632l-.02.018C2.12 9.164 2.11 14.934 5.645 18.505c3.545 3.58 9.31 3.64 12.868.135.031-.031.057-.065.087-.096L5.688 5.632z"/>
        <path fill="#FBB016" d="M12.3 5.203c-3.992-.02-7.113 2.99-7.133 6.902-.018 3.796 3.077 6.901 6.897 6.921 3.83.02 6.96-3.047 6.99-6.844.018-3.772-3.062-6.959-6.753-6.979"/>
        <path fill="#D97A27" d="M11.903 6.05c3.69.019 6.771 3.206 6.752 6.977a6.79 6.79 0 0 1-.486 2.463c.554-.98.875-2.107.884-3.308.02-3.772-3.061-6.959-6.752-6.979-3.07-.015-5.617 1.763-6.644 4.363 1.205-2.132 3.521-3.53 6.246-3.517"/>
    </g>
</svg>
