<svg xmlns="http://www.w3.org/2000/svg" width="24" height="24" viewBox="0 0 24 24">
    <g fill="none" fill-rule="evenodd">
        <path d="M0 0h24v24H0z"/>
        <path fill="#FBB017" fill-rule="nonzero" d="M15.378 18.75H8.625a3.375 3.375 0 0 1-3.372-3.372V8.625A3.377 3.377 0 0 1 8.625 5.25h6.753a3.38 3.38 0 0 1 3.375 3.375v6.754a3.377 3.377 0 0 1-3.375 3.371zM8.627 6.593c-1.119 0-2.03.91-2.03 2.032v6.754c0 1.118.911 2.03 2.03 2.03h6.752c1.122 0 2.031-.912 2.031-2.03V8.625c0-1.12-.91-2.032-2.03-2.032H8.626z"/>
        <path fill="#FBB017" d="M12.069 13.706a.69.69 0 0 0 .688-.689V8.333a.695.695 0 1 0-1.39 0v4.684c0 .38.313.689.702.689zM12.069 14.65a.858.858 0 0 0 0 1.715.852.852 0 0 0 .845-.856.854.854 0 0 0-.845-.859z"/>
    </g>
</svg>
