<svg xmlns="http://www.w3.org/2000/svg" width="114" height="36" viewBox="0 0 114 36">
    <g fill="none" fill-rule="evenodd">
        <path fill="#5E51A1" d="M57.984 15.364c0-1.907-1.125-3.032-3.066-3.032-1.031 0-2.032.127-3.035.375v9.076a4.71 4.71 0 0 0 3.035 1.093c1.94 0 3.066-1.093 3.066-3.034v-4.478zm-9.324-3.283c0-.876.563-1.658 1.38-1.91 1.562-.5 3.19-.812 4.878-.812 1.845 0 3.411.595 4.54 1.755 1.124 1.124 1.75 2.687 1.75 4.502v3.942c0 1.848-.594 3.477-1.719 4.601-1.128 1.157-2.503 1.692-4.352 1.692-1.03 0-2.283-.376-3.254-.814v5.855c0 .907-.719 1.625-1.593 1.625-.911 0-1.63-.718-1.63-1.625V12.08zM73.228 18.746h-3.223c-2.726 0-2.88 1.47-2.88 2.004 0 .562.154 2.126 2.88 2.126 1.063 0 2.218-.155 3.223-.407v-3.723zm3.222 4.382c0 .873-.565 1.625-1.378 1.91-1.534.53-3.315.813-5.067.813-1.91 0-3.415-.468-4.478-1.379-1.06-.908-1.626-2.188-1.626-3.722 0-1.535.565-2.721 1.626-3.6 1.063-.902 2.568-1.376 4.478-1.376h3.223v-1.096c0-1.315-.972-2.346-2.6-2.346-1.47 0-2.284.186-3.38.844-.248.157-.594.281-.876.281-.845 0-1.532-.626-1.532-1.403 0-.565.25-1.13.783-1.444 1.69-.97 3.158-1.25 5.411-1.25 3.505 0 5.416 2.536 5.416 5.318v8.45zM85.273 20.278l-3.318 4.882c-.31.44-.81.692-1.31.692-.845 0-1.627-.721-1.627-1.629 0-.313.09-.626.279-.907l4.099-5.788-4.007-5.632a1.66 1.66 0 0 1-.281-.91c0-.845.722-1.627 1.628-1.627.501 0 1.004.252 1.314.689l3.223 4.727 3.223-4.727c.314-.471.846-.689 1.347-.689.876 0 1.595.72 1.595 1.626 0 .316-.093.627-.281.91l-4.006 5.633 4.1 5.788c.219.281.313.594.313.907 0 .874-.752 1.629-1.658 1.629a1.54 1.54 0 0 1-1.313-.692l-3.32-4.882zM103.015 16.149c0-2.595-1.064-3.817-3.064-3.817-1.973 0-3.034 1.187-3.034 3.817h6.098zm-6.098 2.975c0 1.283.215 2.127.624 2.689.531.688 1.345 1.063 2.41 1.063 1.189 0 2.316-.345 3.379-.811a1.68 1.68 0 0 1 .657-.159c.782 0 1.533.66 1.533 1.473 0 .59-.25 1.123-.816 1.407a10.86 10.86 0 0 1-4.753 1.065c-1.819 0-3.379-.594-4.541-1.753-1.124-1.13-1.72-2.693-1.72-4.54v-3.942c0-1.815.596-3.378 1.72-4.502 1.162-1.16 2.722-1.755 4.54-1.755 1.845 0 3.413.595 4.538 1.755 1.124 1.124 1.75 2.687 1.75 4.502v1.473a2.03 2.03 0 0 1-2.032 2.035h-7.289zM108.776 4.914c0-.908.72-1.625 1.629-1.625.876 0 1.595.717 1.595 1.625v19.31c0 .907-.72 1.627-1.595 1.627-.908 0-1.629-.72-1.629-1.628V4.913z"/>
        <path fill="#FFB200" d="M33.236 9.693c-.027-.03-.049-.068-.08-.1l-7.935-7.935a1.218 1.218 0 0 0-1.727 0 1.213 1.213 0 0 0 0 1.727l3.381 3.39v2.158H24.43v2.444h5.972a3.27 3.27 0 0 1 3.266 3.27v15.446a3.23 3.23 0 0 1-.362 1.484l-20.808-20.81a1.224 1.224 0 0 0-1.73 0 1.218 1.218 0 0 0 0 1.728l20.688 20.689a3.266 3.266 0 0 1-1.054.177H14.955c-1.801 0-3.27-1.468-3.27-3.268V24.43H9.24V30.485c0 .113.021.222.05.332.038.27.09.535.165.795l.095 1.164.947.89c.004.006.013.01.019.019a5.707 5.707 0 0 0 4.439 2.121h15.447a5.677 5.677 0 0 0 3.793-1.456c.028-.024.061-.044.087-.07l.023-.034a5.68 5.68 0 0 0 1.81-4.153V14.647c0-2.118-1.164-3.965-2.879-4.954"/>
        <path fill="#FF434F" d="M24.43 8.933h-9.475a5.663 5.663 0 0 0-3.263 1.03L4.436 2.707a3.315 3.315 0 0 1 1.28-.262h15.446a3.273 3.273 0 0 1 3.268 3.27v3.219zm0 12.227a3.273 3.273 0 0 1-3.268 3.27h-9.477v-9.784c0-.822.308-1.57.808-2.149l.005-.002c0-.002.003-.002.003-.007a3.268 3.268 0 0 1 2.454-1.11h9.475v9.782zM9.24 14.646v9.784H5.716a3.272 3.272 0 0 1-3.266-3.27V5.713c0-.45.09-.885.259-1.278l7.322 7.324c-.5.845-.791 1.831-.791 2.887zM21.162 0H5.716c-1.47 0-2.801.562-3.817 1.477-.083.05-.166.106-.24.181a1.268 1.268 0 0 0-.183.241A5.693 5.693 0 0 0 0 5.713V21.16c0 1.47.565 2.804 1.476 3.818.06.096.119.182.204.262l7.972 7.64v-.012a1.22 1.22 0 0 0 2.033-.909v-5.084h9.477a5.722 5.722 0 0 0 5.713-5.715V5.713A5.72 5.72 0 0 0 21.162 0z"/>
    </g>
</svg>
